<svg width="247.000000" height="65.000000" viewBox="0 0 247 65" fill="none" xmlns="http://www.w3.org/2000/svg" xmlns:xlink="http://www.w3.org/1999/xlink">
	<desc>
			Created with Pixso.
	</desc>
	<defs>
		<clipPath id="clip27_8951">
			<rect id="Broken / Messages, Conversation /  Chat  Square Code" width="22.000000" height="22.000000" transform="translate(119.000000 3.000000)" fill="white" fill-opacity="0"/>
		</clipPath>
		<clipPath id="clip27_8956">
			<rect id="Broken / Messages, Conversation /  Chat  Square Code" width="17.000000" height="17.000000" transform="translate(167.000000 5.000000)" fill="white" fill-opacity="0"/>
		</clipPath>
		<clipPath id="clip27_8961">
			<rect id="Broken / Messages, Conversation /  Chat  Square Code" width="17.000000" height="17.000000" transform="translate(114.000000 45.000000)" fill="white" fill-opacity="0"/>
		</clipPath>
		<clipPath id="clip27_8966">
			<rect id="Broken / Messages, Conversation /  Chat  Square Code" width="19.000000" height="19.000000" transform="translate(228.000000 2.000000)" fill="white" fill-opacity="0"/>
		</clipPath>
		<clipPath id="clip27_8970">
			<rect id="Broken / Messages, Conversation /  Chat  Square Code" width="30.000000" height="30.000000" transform="translate(51.000000 21.000000)" fill="white" fill-opacity="0"/>
		</clipPath>
		<clipPath id="clip27_8974">
			<rect id="Broken / Messages, Conversation /  Chat  Square Code" width="20.000000" height="20.000000" transform="translate(0.000000 2.000000)" fill="white" fill-opacity="0"/>
		</clipPath>
		<clipPath id="clip27_8979">
			<rect id="Broken / Messages, Conversation /  Chat  Square Code" width="18.000000" height="18.000000" transform="translate(37.000000 3.000000)" fill="white" fill-opacity="0"/>
		</clipPath>
		<clipPath id="clip27_8984">
			<rect id="Broken / Messages, Conversation /  Chat  Square Code" width="18.000000" height="18.000000" transform="translate(73.000000 43.000000)" fill="white" fill-opacity="0"/>
		</clipPath>
		<clipPath id="clip27_8989">
			<rect id="Broken / Messages, Conversation /  Chat  Square Code" width="18.000000" height="18.000000" transform="translate(96.000000 27.000000)" fill="white" fill-opacity="0"/>
		</clipPath>
		<clipPath id="clip27_8994">
			<rect id="Broken / Messages, Conversation /  Chat  Square Code" width="21.000000" height="21.000000" transform="translate(18.000000 24.000000)" fill="white" fill-opacity="0"/>
		</clipPath>
		<clipPath id="clip27_8998">
			<rect id="Broken / Messages, Conversation /  Chat  Square Code" width="24.000000" height="24.000000" transform="translate(78.000000 0.000000)" fill="white" fill-opacity="0"/>
		</clipPath>
		<clipPath id="clip27_9002">
			<rect id="Broken / Messages, Conversation /  Chat  Square Code" width="24.000000" height="24.000000" transform="translate(139.000000 26.000000)" fill="white" fill-opacity="0"/>
		</clipPath>
		<clipPath id="clip27_9006">
			<rect id="Broken / Messages, Conversation /  Chat  Square Code" width="29.000000" height="29.000000" transform="translate(183.000000 20.000000)" fill="white" fill-opacity="0"/>
		</clipPath>
		<clipPath id="clip27_9010">
			<rect id="Broken / Messages, Conversation /  Chat  Square Code" width="29.000000" height="29.000000" transform="translate(157.000000 36.000000)" fill="white" fill-opacity="0"/>
		</clipPath>
	</defs>
	<g clip-path="url(#clip27_8951)">
		<path id="Vector" d="M121.18 17.58C121.64 18.71 122.53 19.6 123.66 20.06C124.26 20.31 124.98 20.38 126.14 20.4C126.92 20.42 127.31 20.42 127.61 20.6C127.92 20.78 128.12 21.11 128.5 21.76L129 22.6C129.44 23.35 130.55 23.35 130.99 22.6L131.49 21.76C131.87 21.11 132.07 20.78 132.38 20.6C132.69 20.42 133.08 20.42 133.85 20.4C135 20.38 135.73 20.31 136.33 20.06C137.46 19.6 138.35 18.71 138.81 17.58C139.16 16.74 139.16 15.67 139.16 13.54L139.16 12.62C139.16 9.62 139.16 8.12 138.49 7.02C138.11 6.4 137.59 5.88 136.97 5.5C135.87 4.83 134.37 4.83 131.37 4.83L128.62 4.83C125.62 4.83 124.12 4.83 123.02 5.5C122.4 5.88 121.88 6.4 121.5 7.02C120.83 8.12 120.83 9.62 120.83 12.62" stroke="#1A8CFF" stroke-opacity="1.000000" stroke-width="1.500000" stroke-linecap="round"/>
		<path id="Vector" d="M133.2 10.17L133.36 10.33C134.58 11.55 135.19 12.16 135.19 12.92C135.19 13.68 134.58 14.29 133.36 15.52L133.2 15.67" stroke="#1A8CFF" stroke-opacity="1.000000" stroke-width="1.500000" stroke-linecap="round"/>
		<path id="Vector" d="M131.18 8.5L130 12.92L128.81 17.35" stroke="#1A8CFF" stroke-opacity="1.000000" stroke-width="1.500000" stroke-linecap="round"/>
		<path id="Vector" d="M126.79 10.17L126.63 10.33C125.41 11.55 124.8 12.16 124.8 12.92C124.8 13.68 125.41 14.29 126.63 15.52L126.79 15.67" stroke="#1A8CFF" stroke-opacity="1.000000" stroke-width="1.500000" stroke-linecap="round"/>
	</g>
	<g clip-path="url(#clip27_8956)">
		<path id="Vector" d="M168.68 16.27C169.04 17.13 169.73 17.82 170.6 18.18C171.07 18.38 171.62 18.43 172.51 18.45C173.12 18.46 173.42 18.46 173.66 18.6C173.89 18.74 174.04 18.99 174.34 19.5L174.73 20.14C175.07 20.72 175.92 20.72 176.27 20.14L176.65 19.5C176.95 18.99 177.1 18.74 177.34 18.6C177.57 18.46 177.88 18.46 178.48 18.45C179.37 18.43 179.93 18.38 180.39 18.18C181.26 17.82 181.95 17.13 182.31 16.27C182.58 15.62 182.58 14.79 182.58 13.14L182.58 12.43C182.58 10.11 182.58 8.95 182.06 8.1C181.77 7.63 181.36 7.23 180.89 6.93C180.04 6.41 178.88 6.41 176.56 6.41L174.43 6.41C172.11 6.41 170.96 6.41 170.1 6.93C169.63 7.23 169.23 7.63 168.93 8.1C168.41 8.95 168.41 10.11 168.41 12.43" stroke="#1A8CFF" stroke-opacity="1.000000" stroke-width="1.500000" stroke-linecap="round"/>
		<path id="Vector" d="M177.97 10.54L178.1 10.66C179.04 11.61 179.51 12.08 179.51 12.67C179.51 13.25 179.04 13.73 178.1 14.67L177.97 14.79" stroke="#1A8CFF" stroke-opacity="1.000000" stroke-width="1.500000" stroke-linecap="round"/>
		<path id="Vector" d="M176.41 9.25L175.5 12.67L174.58 16.09" stroke="#1A8CFF" stroke-opacity="1.000000" stroke-width="1.500000" stroke-linecap="round"/>
		<path id="Vector" d="M173.02 10.54L172.89 10.66C171.95 11.61 171.48 12.08 171.48 12.67C171.48 13.25 171.95 13.73 172.89 14.67L173.02 14.79" stroke="#1A8CFF" stroke-opacity="1.000000" stroke-width="1.500000" stroke-linecap="round"/>
	</g>
	<g clip-path="url(#clip27_8961)">
		<path id="Vector" d="M115.68 56.27C116.04 57.13 116.73 57.82 117.6 58.18C118.07 58.38 118.62 58.43 119.51 58.45C120.12 58.46 120.42 58.46 120.66 58.6C120.89 58.74 121.04 58.99 121.34 59.5L121.73 60.14C122.07 60.72 122.92 60.72 123.27 60.14L123.65 59.5C123.95 58.99 124.1 58.74 124.34 58.6C124.57 58.46 124.88 58.46 125.48 58.45C126.37 58.43 126.93 58.38 127.39 58.18C128.26 57.82 128.95 57.13 129.31 56.27C129.58 55.62 129.58 54.79 129.58 53.14L129.58 52.43C129.58 50.11 129.58 48.95 129.06 48.1C128.77 47.63 128.36 47.23 127.89 46.93C127.04 46.41 125.88 46.41 123.56 46.41L121.43 46.41C119.11 46.41 117.96 46.41 117.1 46.93C116.63 47.23 116.23 47.63 115.93 48.1C115.41 48.95 115.41 50.11 115.41 52.43" stroke="#1A8CFF" stroke-opacity="1.000000" stroke-width="1.500000" stroke-linecap="round"/>
		<path id="Vector" d="M124.97 50.54L125.1 50.66C126.04 51.61 126.51 52.08 126.51 52.67C126.51 53.25 126.04 53.73 125.1 54.67L124.97 54.79" stroke="#1A8CFF" stroke-opacity="1.000000" stroke-width="1.500000" stroke-linecap="round"/>
		<path id="Vector" d="M123.41 49.25L122.5 52.67L121.58 56.09" stroke="#1A8CFF" stroke-opacity="1.000000" stroke-width="1.500000" stroke-linecap="round"/>
		<path id="Vector" d="M120.02 50.54L119.89 50.66C118.95 51.61 118.48 52.08 118.48 52.67C118.48 53.25 118.95 53.73 119.89 54.67L120.02 54.79" stroke="#1A8CFF" stroke-opacity="1.000000" stroke-width="1.500000" stroke-linecap="round"/>
	</g>
	<g clip-path="url(#clip27_8966)">
		<path id="Vector" d="M229.88 14.59C230.28 15.56 231.05 16.33 232.02 16.74C232.54 16.95 233.17 17.01 234.16 17.03C234.84 17.04 235.17 17.05 235.44 17.2C235.71 17.36 235.87 17.64 236.21 18.2L236.64 18.93C237.02 19.57 237.97 19.57 238.36 18.93L238.78 18.2C239.12 17.64 239.28 17.36 239.55 17.2C239.82 17.05 240.16 17.04 240.83 17.03C241.82 17.01 242.45 16.95 242.97 16.74C243.94 16.33 244.71 15.56 245.11 14.59C245.41 13.87 245.41 12.94 245.41 11.1L245.41 10.31C245.41 7.72 245.41 6.42 244.83 5.47C244.5 4.94 244.05 4.49 243.52 4.16C242.57 3.58 241.27 3.58 238.68 3.58L236.31 3.58C233.72 3.58 232.42 3.58 231.47 4.16C230.94 4.49 230.49 4.94 230.16 5.47C229.58 6.42 229.58 7.72 229.58 10.31" stroke="#1A8CFF" stroke-opacity="1.000000" stroke-width="1.500000" stroke-linecap="round"/>
		<path id="Vector" d="M240.27 8.19L240.4 8.33C241.46 9.38 241.98 9.91 241.98 10.57C241.98 11.22 241.46 11.75 240.4 12.81L240.27 12.94" stroke="#1A8CFF" stroke-opacity="1.000000" stroke-width="1.500000" stroke-linecap="round"/>
		<path id="Vector" d="M238.52 6.75L237.5 10.57L236.47 14.39" stroke="#1A8CFF" stroke-opacity="1.000000" stroke-width="1.500000" stroke-linecap="round"/>
		<path id="Vector" d="M234.72 8.19L234.59 8.33C233.53 9.38 233.01 9.91 233.01 10.57C233.01 11.22 233.53 11.75 234.59 12.81L234.72 12.94" stroke="#1A8CFF" stroke-opacity="1.000000" stroke-width="1.500000" stroke-linecap="round"/>
	</g>
	<g clip-path="url(#clip27_8970)">
		<path id="Vector" d="M70.37 30.78L70.58 31C72.25 32.66 73.08 33.5 73.08 34.53C73.08 35.57 72.25 36.4 70.58 38.07L70.37 38.28" stroke="#1A8CFF" stroke-opacity="1.000000" stroke-width="1.500000" stroke-linecap="round"/>
		<path id="Vector" d="M67.61 28.5L66 34.53L64.38 40.57" stroke="#1A8CFF" stroke-opacity="1.000000" stroke-width="1.500000" stroke-linecap="round"/>
		<path id="Vector" d="M61.62 30.78L61.41 31C59.74 32.66 58.91 33.5 58.91 34.53C58.91 35.57 59.74 36.4 61.41 38.07L61.62 38.28" stroke="#1A8CFF" stroke-opacity="1.000000" stroke-width="1.500000" stroke-linecap="round"/>
	</g>
	<g clip-path="url(#clip27_8974)">
		<path id="Vector" d="M12.91 8.52L13.05 8.66C14.17 9.77 14.72 10.33 14.72 11.02C14.72 11.71 14.17 12.27 13.05 13.38L12.91 13.52" stroke="#1A8CFF" stroke-opacity="1.000000" stroke-width="1.500000" stroke-linecap="round"/>
		<path id="Vector" d="M11.07 7L10 11.02L8.92 15.04" stroke="#1A8CFF" stroke-opacity="1.000000" stroke-width="1.500000" stroke-linecap="round"/>
		<path id="Vector" d="M7.08 8.52L6.94 8.66C5.82 9.77 5.27 10.33 5.27 11.02C5.27 11.71 5.82 12.27 6.94 13.38L7.08 13.52" stroke="#1A8CFF" stroke-opacity="1.000000" stroke-width="1.500000" stroke-linecap="round"/>
	</g>
	<g clip-path="url(#clip27_8979)">
		<path id="Vector" d="M38.78 14.93C39.16 15.85 39.89 16.58 40.81 16.96C41.31 17.16 41.9 17.22 42.84 17.24C43.47 17.25 43.79 17.26 44.05 17.4C44.3 17.55 44.46 17.82 44.77 18.35L45.18 19.04C45.54 19.65 46.45 19.65 46.81 19.04L47.22 18.35C47.53 17.82 47.69 17.55 47.94 17.4C48.2 17.26 48.52 17.25 49.15 17.24C50.09 17.22 50.68 17.16 51.18 16.96C52.1 16.58 52.83 15.85 53.21 14.93C53.5 14.24 53.5 13.37 53.5 11.62L53.5 10.87C53.5 8.41 53.5 7.19 52.94 6.29C52.63 5.78 52.21 5.36 51.7 5.05C50.8 4.5 49.58 4.5 47.12 4.5L44.87 4.5C42.41 4.5 41.19 4.5 40.29 5.05C39.78 5.36 39.36 5.78 39.05 6.29C38.5 7.19 38.5 8.41 38.5 10.87" stroke="#1A8CFF" stroke-opacity="1.000000" stroke-width="1.500000" stroke-linecap="round"/>
		<path id="Vector" d="M48.62 8.87L48.75 9C49.75 10 50.25 10.5 50.25 11.12C50.25 11.74 49.75 12.24 48.75 13.24L48.62 13.37" stroke="#1A8CFF" stroke-opacity="1.000000" stroke-width="1.500000" stroke-linecap="round"/>
		<path id="Vector" d="M46.97 7.5L46 11.12L45.02 14.74" stroke="#1A8CFF" stroke-opacity="1.000000" stroke-width="1.500000" stroke-linecap="round"/>
		<path id="Vector" d="M43.37 8.87L43.24 9C42.24 10 41.74 10.5 41.74 11.12C41.74 11.74 42.24 12.24 43.24 13.24L43.37 13.37" stroke="#1A8CFF" stroke-opacity="1.000000" stroke-width="1.500000" stroke-linecap="round"/>
	</g>
	<g clip-path="url(#clip27_8984)">
		<path id="Vector" d="M74.78 54.93C75.16 55.85 75.89 56.58 76.81 56.96C77.31 57.16 77.9 57.22 78.84 57.24C79.47 57.25 79.79 57.26 80.05 57.4C80.3 57.55 80.46 57.82 80.77 58.35L81.18 59.04C81.54 59.65 82.45 59.65 82.81 59.04L83.22 58.35C83.53 57.82 83.69 57.55 83.94 57.4C84.2 57.26 84.52 57.25 85.15 57.24C86.09 57.22 86.68 57.16 87.18 56.96C88.1 56.58 88.83 55.85 89.21 54.93C89.5 54.24 89.5 53.37 89.5 51.62L89.5 50.87C89.5 48.41 89.5 47.19 88.94 46.29C88.63 45.78 88.21 45.36 87.7 45.05C86.8 44.5 85.58 44.5 83.12 44.5L80.87 44.5C78.41 44.5 77.19 44.5 76.29 45.05C75.78 45.36 75.36 45.78 75.05 46.29C74.5 47.19 74.5 48.41 74.5 50.87" stroke="#1A8CFF" stroke-opacity="1.000000" stroke-width="1.500000" stroke-linecap="round"/>
		<path id="Vector" d="M84.62 48.87L84.75 49C85.75 50 86.25 50.5 86.25 51.12C86.25 51.74 85.75 52.24 84.75 53.24L84.62 53.37" stroke="#1A8CFF" stroke-opacity="1.000000" stroke-width="1.500000" stroke-linecap="round"/>
		<path id="Vector" d="M82.97 47.5L82 51.12L81.02 54.74" stroke="#1A8CFF" stroke-opacity="1.000000" stroke-width="1.500000" stroke-linecap="round"/>
		<path id="Vector" d="M79.37 48.87L79.24 49C78.24 50 77.74 50.5 77.74 51.12C77.74 51.74 78.24 52.24 79.24 53.24L79.37 53.37" stroke="#1A8CFF" stroke-opacity="1.000000" stroke-width="1.500000" stroke-linecap="round"/>
	</g>
	<g clip-path="url(#clip27_8989)">
		<path id="Vector" d="M97.78 38.93C98.16 39.85 98.89 40.58 99.81 40.96C100.31 41.16 100.9 41.22 101.84 41.24C102.47 41.25 102.79 41.26 103.05 41.4C103.3 41.55 103.46 41.82 103.77 42.35L104.18 43.04C104.54 43.65 105.45 43.65 105.81 43.04L106.22 42.35C106.53 41.82 106.69 41.55 106.94 41.4C107.2 41.26 107.52 41.25 108.15 41.24C109.1 41.22 109.68 41.16 110.18 40.96C111.1 40.58 111.83 39.85 112.21 38.93C112.5 38.24 112.5 37.37 112.5 35.62L112.5 34.87C112.5 32.41 112.5 31.19 111.94 30.29C111.63 29.78 111.21 29.36 110.7 29.05C109.8 28.5 108.58 28.5 106.12 28.5L103.87 28.5C101.42 28.5 100.19 28.5 99.29 29.05C98.78 29.36 98.36 29.78 98.05 30.29C97.5 31.19 97.5 32.41 97.5 34.87" stroke="#1A8CFF" stroke-opacity="1.000000" stroke-width="1.500000" stroke-linecap="round"/>
		<path id="Vector" d="M107.62 32.87L107.75 33C108.75 34 109.25 34.5 109.25 35.12C109.25 35.74 108.75 36.24 107.75 37.24L107.62 37.37" stroke="#1A8CFF" stroke-opacity="1.000000" stroke-width="1.500000" stroke-linecap="round"/>
		<path id="Vector" d="M105.97 31.5L105 35.12L104.02 38.74" stroke="#1A8CFF" stroke-opacity="1.000000" stroke-width="1.500000" stroke-linecap="round"/>
		<path id="Vector" d="M102.37 32.87L102.24 33C101.24 34 100.74 34.5 100.74 35.12C100.74 35.74 101.24 36.24 102.24 37.24L102.37 37.37" stroke="#1A8CFF" stroke-opacity="1.000000" stroke-width="1.500000" stroke-linecap="round"/>
	</g>
	<g clip-path="url(#clip27_8994)">
		<path id="Vector" d="M20.08 37.92C20.52 38.99 21.37 39.84 22.45 40.29C23.02 40.53 23.71 40.59 24.81 40.61C25.55 40.63 25.93 40.63 26.22 40.8C26.52 40.98 26.7 41.29 27.07 41.91L27.54 42.71C27.97 43.42 29.02 43.42 29.45 42.71L29.92 41.91C30.29 41.29 30.47 40.98 30.77 40.8C31.06 40.63 31.44 40.63 32.18 40.61C33.28 40.59 33.97 40.53 34.54 40.29C35.62 39.84 36.47 38.99 36.91 37.92C37.25 37.12 37.25 36.1 37.25 34.06L37.25 33.18C37.25 30.32 37.25 28.89 36.6 27.83C36.24 27.25 35.75 26.75 35.16 26.39C34.1 25.75 32.67 25.75 29.81 25.75L27.18 25.75C24.32 25.75 22.89 25.75 21.83 26.39C21.25 26.75 20.75 27.25 20.39 27.83C19.75 28.89 19.75 30.32 19.75 33.18" stroke="#1A8CFF" stroke-opacity="1.000000" stroke-width="1.500000" stroke-linecap="round"/>
		<path id="Vector" d="M31.56 30.85L31.71 31C32.87 32.16 33.46 32.75 33.46 33.47C33.46 34.2 32.87 34.78 31.71 35.95L31.56 36.1" stroke="#1A8CFF" stroke-opacity="1.000000" stroke-width="1.500000" stroke-linecap="round"/>
		<path id="Vector" d="M29.63 29.25L28.49 33.47L27.36 37.7" stroke="#1A8CFF" stroke-opacity="1.000000" stroke-width="1.500000" stroke-linecap="round"/>
		<path id="Vector" d="M25.43 30.85L25.28 31C24.12 32.16 23.53 32.75 23.53 33.47C23.53 34.2 24.12 34.78 25.28 35.95L25.43 36.1" stroke="#1A8CFF" stroke-opacity="1.000000" stroke-width="1.500000" stroke-linecap="round"/>
	</g>
	<g clip-path="url(#clip27_8998)">
		<path id="Vector" d="M93.5 7.82L93.67 8C95 9.33 95.67 10 95.67 10.82C95.67 11.65 95 12.32 93.67 13.65L93.5 13.82" stroke="#1A8CFF" stroke-opacity="1.000000" stroke-width="1.500000" stroke-linecap="round"/>
		<path id="Vector" d="M91.29 6L90 10.82L88.7 15.65" stroke="#1A8CFF" stroke-opacity="1.000000" stroke-width="1.500000" stroke-linecap="round"/>
		<path id="Vector" d="M86.5 7.82L86.32 8C84.99 9.33 84.32 10 84.32 10.82C84.32 11.65 84.99 12.32 86.32 13.65L86.5 13.82" stroke="#1A8CFF" stroke-opacity="1.000000" stroke-width="1.500000" stroke-linecap="round"/>
	</g>
	<g clip-path="url(#clip27_9002)">
		<path id="Vector" d="M154.5 33.82L154.67 34C156 35.33 156.67 36 156.67 36.82C156.67 37.65 156 38.32 154.67 39.65L154.5 39.82" stroke="#1A8CFF" stroke-opacity="1.000000" stroke-width="1.500000" stroke-linecap="round"/>
		<path id="Vector" d="M152.29 32L151 36.82L149.7 41.65" stroke="#1A8CFF" stroke-opacity="1.000000" stroke-width="1.500000" stroke-linecap="round"/>
		<path id="Vector" d="M147.5 33.82L147.32 34C145.99 35.33 145.32 36 145.32 36.82C145.32 37.65 145.99 38.32 147.32 39.65L147.5 39.82" stroke="#1A8CFF" stroke-opacity="1.000000" stroke-width="1.500000" stroke-linecap="round"/>
	</g>
	<g clip-path="url(#clip27_9006)">
		<path id="Vector" d="M201.72 29.46L201.93 29.66C203.54 31.27 204.35 32.08 204.35 33.08C204.35 34.08 203.54 34.89 201.93 36.5L201.72 36.71" stroke="#1A8CFF" stroke-opacity="1.000000" stroke-width="1.500000" stroke-linecap="round"/>
		<path id="Vector" d="M199.06 27.25L197.5 33.08L195.93 38.92" stroke="#1A8CFF" stroke-opacity="1.000000" stroke-width="1.500000" stroke-linecap="round"/>
		<path id="Vector" d="M193.27 29.46L193.06 29.66C191.45 31.27 190.64 32.08 190.64 33.08C190.64 34.08 191.45 34.89 193.06 36.5L193.27 36.71" stroke="#1A8CFF" stroke-opacity="1.000000" stroke-width="1.500000" stroke-linecap="round"/>
	</g>
	<g clip-path="url(#clip27_9010)">
		<path id="Vector" d="M175.72 45.46L175.93 45.66C177.54 47.27 178.35 48.08 178.35 49.08C178.35 50.08 177.54 50.89 175.93 52.5L175.72 52.71" stroke="#1A8CFF" stroke-opacity="1.000000" stroke-width="1.500000" stroke-linecap="round"/>
		<path id="Vector" d="M173.06 43.25L171.5 49.08L169.93 54.92" stroke="#1A8CFF" stroke-opacity="1.000000" stroke-width="1.500000" stroke-linecap="round"/>
		<path id="Vector" d="M167.27 45.46L167.06 45.66C165.45 47.27 164.64 48.08 164.64 49.08C164.64 50.08 165.45 50.89 167.06 52.5L167.27 52.71" stroke="#1A8CFF" stroke-opacity="1.000000" stroke-width="1.500000" stroke-linecap="round"/>
	</g>
</svg>
