<svg width="22.000000" height="22.000000" viewBox="0 0 22 22" fill="none" xmlns="http://www.w3.org/2000/svg" xmlns:xlink="http://www.w3.org/1999/xlink">
	<desc>
			Created with Pixso.
	</desc>
	<defs>
		<clipPath id="clip27_9017">
			<rect id="Bold Duotone / Medicine / Health" width="22.000000" height="22.000000" fill="white" fill-opacity="0"/>
		</clipPath>
	</defs>
	<g clip-path="url(#clip27_9017)">
		<g opacity="0.500000">
			<path id="Vector" d="M1.83 8.54C1.83 11.95 5.51 15.57 8.21 17.76C9.43 18.75 10.04 19.25 11 19.25C11.95 19.25 12.56 18.75 13.78 17.76C16.48 15.57 20.16 11.95 20.16 8.54C20.16 2.83 15.12 0.69 11 5.1C6.87 0.69 1.83 2.83 1.83 8.54Z" fill="#007AFF" fill-opacity="1.000000" fill-rule="nonzero"/>
		</g>
		<path id="Vector" d="M15.12 5.72C15.5 5.72 15.81 6.03 15.81 6.41L15.81 7.56L16.95 7.56C17.33 7.56 17.64 7.87 17.64 8.25C17.64 8.62 17.33 8.93 16.95 8.93L15.81 8.93L15.81 10.08C15.81 10.46 15.5 10.77 15.12 10.77C14.74 10.77 14.43 10.46 14.43 10.08L14.43 8.93L13.29 8.93C12.91 8.93 12.6 8.62 12.6 8.25C12.6 7.87 12.91 7.56 13.29 7.56L14.43 7.56L14.43 6.41C14.43 6.03 14.74 5.72 15.12 5.72Z" fill="#007AFF" fill-opacity="1.000000" fill-rule="evenodd"/>
	</g>
</svg>
