<svg width="24.000000" height="24.000000" viewBox="0 0 24 24" fill="none" xmlns="http://www.w3.org/2000/svg" xmlns:xlink="http://www.w3.org/1999/xlink">
	<desc>
			Created with Pixso.
	</desc>
	<defs/>
	<path id="Vector" d="M12.98 7.49L14.34 8.03C15.21 8.37 15.21 9.62 14.34 9.96L11.62 11.03C11.35 11.14 11.14 11.35 11.03 11.62L9.96 14.34C9.62 15.21 8.37 15.21 8.03 14.34L6.96 11.62C6.85 11.35 6.64 11.14 6.37 11.03L3.65 9.96C2.78 9.62 2.78 8.37 3.65 8.03L6.37 6.96C6.64 6.85 6.85 6.64 6.96 6.37L8.03 3.65C8.37 2.78 9.62 2.78 9.96 3.65L10.5 5.01" stroke="#007AFF" stroke-opacity="1.000000" stroke-width="1.500000" stroke-linecap="round"/>
	<path id="Vector" d="M18.31 15.37C18.36 15.52 18.48 15.63 18.62 15.68L20.65 16.48C21.11 16.67 21.11 17.32 20.65 17.51L18.62 18.31C18.48 18.36 18.36 18.48 18.31 18.62L17.51 20.65C17.32 21.11 16.67 21.11 16.48 20.65L15.68 18.62C15.63 18.48 15.52 18.36 15.37 18.31L13.34 17.51C12.88 17.32 12.88 16.67 13.34 16.48L15.37 15.68C15.52 15.63 15.63 15.52 15.68 15.37L16.48 13.34C16.67 12.88 17.32 12.88 17.51 13.34L18.31 15.37Z" stroke="#007AFF" stroke-opacity="1.000000" stroke-width="1.500000"/>
</svg>
