<svg width="11.406250" height="5.569336" viewBox="0 0 11.4062 5.56934" fill="none" xmlns="http://www.w3.org/2000/svg" xmlns:xlink="http://www.w3.org/1999/xlink">
	<desc>
			Created with Pixso.
	</desc>
	<defs/>
	<path id="Vector 9" d="M10.25 0.16L5.25 4.33L5.7 4.86L6.15 4.33L1.15 0.16L0.25 1.24L5.25 5.4Q5.3 5.44 5.35 5.47Q5.4 5.5 5.46 5.52Q5.52 5.54 5.58 5.55Q5.64 5.56 5.7 5.56Q5.76 5.56 5.82 5.55Q5.88 5.54 5.94 5.52Q5.99 5.5 6.05 5.47Q6.1 5.44 6.15 5.4L11.15 1.24L10.25 0.16ZM11.12 1.23L11.15 1.24C11.45 0.98 11.49 0.55 11.24 0.25C10.99 -0.05 10.55 -0.09 10.25 0.16L10.25 0.19L11.12 1.23ZM1.15 0.19L1.15 0.16C0.85 -0.09 0.41 -0.05 0.16 0.25C-0.09 0.55 -0.05 0.98 0.25 1.24L0.28 1.23L1.15 0.19Z" fill="#AEAEB2" fill-opacity="1.000000" fill-rule="evenodd"/>
</svg>
