<svg width="25" height="25" viewBox="0 0 25 25" fill="none" xmlns="http://www.w3.org/2000/svg">
<path d="M22.5 12.7363C22.5 16.5076 22.5 18.3932 21.3284 19.5648C20.1569 20.7363 18.2712 20.7363 14.5 20.7363H10.5C6.72876 20.7363 4.84315 20.7363 3.67157 19.5648C2.5 18.3932 2.5 16.5076 2.5 12.7363C2.5 8.96509 2.5 7.07947 3.67157 5.9079C4.84315 4.73633 6.72876 4.73633 10.5 4.73633H14.5C18.2712 4.73633 20.1569 4.73633 21.3284 5.9079C21.9816 6.56108 22.2706 7.43621 22.3985 8.73633" stroke="#007AFF" stroke-width="1.5" stroke-linecap="round"/>
<path d="M18.5 8.73633L16.3411 10.5354C14.5045 12.0659 13.5861 12.8312 12.5 12.8312C11.8507 12.8312 11.2614 12.5577 10.5 12.0108M6.5 8.73633L7.4 9.48633L8.3 10.2363" stroke="#007AFF" stroke-width="1.5" stroke-linecap="round"/>
</svg>
