<svg width="45" height="42" viewBox="0 0 45 42" fill="none" xmlns="http://www.w3.org/2000/svg">
<path d="M44.2586 34.1157C43.8978 33.5414 43.4262 33.0447 42.8712 32.6548C42.3163 32.2649 41.6891 31.9895 41.0265 31.8447C38.4914 31.2551 36.2928 29.686 34.911 27.4803C33.5293 25.2746 33.0768 22.6116 33.6524 20.0733C33.8737 19.0922 33.8002 18.0677 33.4411 17.1282C33.082 16.1888 32.4533 15.3764 31.6341 14.7931C30.8147 14.2098 29.8414 13.8817 28.8361 13.8497C27.8309 13.8179 26.8387 14.0837 25.9841 14.6138C25.1294 15.144 24.4505 15.9149 24.0326 16.8296C23.6146 17.7444 23.4763 18.7623 23.635 19.7554C23.7936 20.7485 24.2422 21.6727 24.9243 22.4117C25.6064 23.1507 26.4917 23.6717 27.469 23.9092C28.7333 24.1944 29.9288 24.7263 30.9872 25.4745C32.0455 26.2225 32.9457 27.1722 33.6363 28.2689C34.3269 29.3657 34.7943 30.5879 35.0116 31.8656C35.2289 33.1433 35.1919 34.4513 34.9028 35.7147C34.7315 36.5291 34.762 37.3731 34.9917 38.173C35.2214 38.9729 35.6432 39.7045 36.2204 40.3041C36.7977 40.9036 37.5127 41.3529 38.3033 41.6127C39.094 41.8726 39.9361 41.9351 40.7564 41.7949C41.5768 41.6547 42.3504 41.316 43.0099 40.8083C43.6693 40.3006 44.1945 39.6394 44.5399 38.8822C44.8852 38.1249 45.0401 37.2948 44.9911 36.464C44.9421 35.6332 44.6906 34.827 44.2586 34.1157Z" fill="#007AFF"/>
<path d="M12.8828 28.451C13.7756 28.9382 14.7935 29.1476 15.806 29.0522C16.8186 28.9568 17.7794 28.5611 18.5655 27.9158C19.3516 27.2705 19.9269 26.405 20.2177 25.4305C20.5085 24.4559 20.5014 23.4168 20.1974 22.4462C19.8121 21.2087 19.6749 19.9073 19.7936 18.6167C19.9123 17.326 20.2844 16.0714 20.889 14.9249C21.4934 13.7784 22.3182 12.7625 23.3161 11.9353C24.314 11.1082 25.4653 10.4862 26.7041 10.1049C27.6648 9.80403 28.515 9.22562 29.1478 8.4426C29.7806 7.65958 30.1676 6.70689 30.2602 5.70438C30.3528 4.70188 30.1468 3.69437 29.6681 2.80873C29.1895 1.92303 28.4595 1.1987 27.5702 0.726913C26.6808 0.255128 25.6718 0.0568893 24.6701 0.157259C23.6684 0.257565 22.7187 0.651918 21.9405 1.29076C21.1624 1.92953 20.5906 2.78423 20.297 3.74724C20.0036 4.71025 20.0014 5.73857 20.291 6.70276C21.0511 9.192 20.794 11.881 19.5762 14.1812C18.3583 16.4814 16.2789 18.2054 13.7929 18.976C12.8115 19.2606 11.9381 19.8332 11.2859 20.6198C10.6336 21.4064 10.2324 22.3706 10.1344 23.3877C10.0364 24.4048 10.2459 25.428 10.736 26.3246C11.226 27.2213 11.9739 27.9502 12.8828 28.417V28.451Z" fill="#0A84FF" fill-opacity="0.25"/>
<path d="M26.0156 27.6174C25.3371 27.6412 24.6702 27.8002 24.0538 28.085C23.4375 28.3698 22.8842 28.7746 22.4263 29.276C20.6498 31.176 18.1933 32.2955 15.5938 32.3895C12.9943 32.4836 10.4632 31.5445 8.55408 29.7777C8.0608 29.3149 7.48046 28.9547 6.84674 28.7182C6.21309 28.4816 5.53869 28.3735 4.86279 28.3999C4.03084 28.4391 3.22107 28.6814 2.5043 29.1056C1.78746 29.5298 1.18544 30.1229 0.750649 30.8333C0.315798 31.5436 0.0615001 32.3497 0.00981555 33.1809C-0.0418065 34.0123 0.110748 34.8435 0.454291 35.6023C0.797834 36.361 1.3218 37.0242 1.98058 37.5338C2.63935 38.0435 3.41281 38.3841 4.23351 38.526C5.05422 38.6679 5.89723 38.6069 6.68888 38.3481C7.48058 38.0893 8.19685 37.6407 8.7752 37.0413C9.65502 36.0888 10.7141 35.3191 11.8918 34.7765C13.0695 34.2339 14.3427 33.929 15.6384 33.8792C16.9342 33.8295 18.227 34.0358 19.4429 34.4864C20.6588 34.9371 21.7738 35.6232 22.724 36.5055C23.3427 37.0645 24.0889 37.4634 24.8973 37.6672C25.7059 37.8712 26.5519 37.8739 27.3617 37.6751C28.1715 37.4764 28.9201 37.0823 29.5423 36.5272C30.1646 35.9722 30.6413 35.2731 30.9309 34.4912C31.2204 33.7093 31.314 32.8684 31.2034 32.042C31.0928 31.2156 30.7814 30.4289 30.2964 29.7506C29.8114 29.0724 29.1677 28.5234 28.4214 28.1515C27.6751 27.7796 26.8491 27.5962 26.0156 27.6174Z" fill="#007AFF"/>
</svg>
