<svg width="25" height="25" viewBox="0 0 25 25" fill="none" xmlns="http://www.w3.org/2000/svg">
<path d="M20.5 14.7363C20.5 18.5076 20.5 20.3932 19.3284 21.5648C18.1569 22.7363 16.2712 22.7363 12.5 22.7363C8.72876 22.7363 6.84315 22.7363 5.67157 21.5648C4.5 20.3932 4.5 18.5076 4.5 14.7363V10.7363C4.5 6.96509 4.5 5.07947 5.67157 3.9079C6.84315 2.73633 8.72876 2.73633 12.5 2.73633C16.2712 2.73633 18.1569 2.73633 19.3284 3.9079C20.5 5.07947 20.5 6.96509 20.5 10.7363" stroke="#007AFF" stroke-width="1.5" stroke-linecap="round"/>
<path d="M15.5 19.7363H9.5" stroke="#007AFF" stroke-width="1.5" stroke-linecap="round"/>
<path d="M17.2484 3.11377L17.1643 3.23994C16.4082 4.37402 16.0302 4.94109 15.478 5.2842C15.3682 5.35242 15.2541 5.41348 15.1365 5.46699C14.5447 5.73609 13.8632 5.73609 12.5002 5.73609C11.1371 5.73609 10.4556 5.73609 9.86387 5.46699C9.7462 5.41348 9.63211 5.35242 9.52232 5.28419C8.97016 4.94108 8.59213 4.37404 7.83606 3.23994L7.75195 3.11377" stroke="#007AFF" stroke-width="1.5" stroke-linecap="round"/>
</svg>
