<svg width="262" height="143" viewBox="0 0 262 143" fill="none" xmlns="http://www.w3.org/2000/svg">
<g clip-path="url(#clip0_37_5830)">
<path d="M101.166 34.5416C101.089 34.5415 101.015 34.5121 100.959 34.4592C100.902 34.4064 100.868 34.334 100.862 34.2567C100.663 31.5352 99.4463 28.9897 97.4565 27.1295C95.4667 25.2694 92.8502 24.2318 90.1307 24.2245C89.8052 24.2245 89.4633 24.2411 89.1144 24.2738C89.0561 24.2793 88.9974 24.2679 88.9454 24.2408C88.8933 24.2137 88.8502 24.1721 88.8211 24.1211C87.5719 21.927 85.7064 20.1507 83.4574 19.0137C81.2084 17.8768 78.6756 17.4297 76.1749 17.7281C73.6743 18.0265 71.3166 19.0573 69.3961 20.6919C67.4757 22.3264 66.0774 24.4922 65.3759 26.9191C65.3574 26.9842 65.3179 27.0412 65.2635 27.0812C65.2092 27.1212 65.1431 27.1419 65.0757 27.1401L64.9945 27.1377C64.9523 27.1362 64.9101 27.1348 64.8676 27.1348C62.8048 27.1412 60.8063 27.8552 59.2036 29.1582C57.6009 30.4613 56.4904 32.275 56.0563 34.2985C56.0418 34.3672 56.0043 34.4289 55.9499 34.4732C55.8955 34.5175 55.8276 34.5416 55.7575 34.5416H35.3045C35.2237 34.5414 35.1462 34.509 35.0891 34.4516C35.0321 34.3942 35 34.3164 35 34.2353C35 34.1542 35.0321 34.0764 35.0891 34.0189C35.1462 33.9615 35.2237 33.9292 35.3045 33.9289H55.5132C56.022 31.8242 57.2186 29.9512 58.9122 28.6087C60.6058 27.2661 62.6987 26.5315 64.857 26.5221C65.6254 24.0281 67.099 21.8118 69.0988 20.1422C71.0986 18.4727 73.5386 17.4219 76.1223 17.1174C78.706 16.8129 81.3222 17.2679 83.6531 18.4271C85.984 19.5862 87.9292 21.3997 89.2525 23.6471C89.5528 23.6236 89.8474 23.6118 90.1307 23.6118C93.0046 23.6196 95.7696 24.7161 97.8723 26.6819C99.9751 28.6477 101.261 31.3378 101.471 34.2138C101.474 34.2539 101.469 34.2942 101.456 34.3324C101.444 34.3706 101.424 34.4058 101.397 34.4362C101.371 34.4666 101.339 34.4915 101.303 34.5094C101.267 34.5274 101.228 34.5381 101.188 34.5409C101.181 34.5414 101.174 34.5416 101.166 34.5416Z" fill="#CBCBCB"/>
<path d="M97.5357 38.4691H47.4674C47.3864 38.4691 47.3088 38.4369 47.2515 38.3794C47.1943 38.322 47.1621 38.244 47.1621 38.1628C47.1621 38.0815 47.1943 38.0036 47.2515 37.9462C47.3088 37.8887 47.3864 37.8564 47.4674 37.8564H97.5357C97.6167 37.8564 97.6943 37.8887 97.7516 37.9462C97.8088 38.0036 97.841 38.0815 97.841 38.1628C97.841 38.244 97.8088 38.322 97.7516 38.3794C97.6943 38.4369 97.6167 38.4691 97.5357 38.4691Z" fill="#CBCBCB"/>
<path d="M59.6793 42.911H42.8881C42.848 42.9111 42.8082 42.9033 42.7711 42.8879C42.7339 42.8726 42.7002 42.85 42.6717 42.8216C42.6433 42.7931 42.6207 42.7593 42.6053 42.7221C42.59 42.6849 42.582 42.645 42.582 42.6047C42.582 42.5644 42.59 42.5245 42.6053 42.4873C42.6207 42.45 42.6433 42.4162 42.6717 42.3878C42.7002 42.3593 42.7339 42.3368 42.7711 42.3214C42.8082 42.3061 42.848 42.2982 42.8881 42.2983H59.6793C59.7602 42.2986 59.8376 42.3309 59.8947 42.3884C59.9518 42.4458 59.9838 42.5236 59.9838 42.6047C59.9838 42.6858 59.9518 42.7636 59.8947 42.821C59.8376 42.8784 59.7602 42.9108 59.6793 42.911Z" fill="#CBCBCB"/>
<path d="M75.3772 102.518C75.3772 114.972 62.3649 120.932 62.3649 120.932C62.3649 120.932 49.2191 114.972 48.9522 102.518C48.7953 95.1972 54.8676 89.2598 62.1647 89.2598C63.8998 89.2598 65.6179 89.6027 67.2209 90.269C68.8239 90.9352 70.2805 91.9118 71.5074 93.1429C72.7343 94.374 73.7075 95.8356 74.3715 97.4441C75.0355 99.0527 75.3772 100.777 75.3772 102.518Z" fill="#E5E5E5"/>
<path d="M66.7688 121.668H57.9603L56.8926 117.383H67.8363L66.7688 121.668Z" fill="#CBCBCB"/>
<path d="M66.4695 128.997H58.2617V133.289H66.4695V128.997Z" fill="white"/>
<path d="M66.5366 133.356H58.1953V128.93H66.5366V133.356ZM58.3288 133.222H66.4031V129.064H58.3288V133.222Z" fill="#CBCBCB"/>
<path d="M64.0479 122.173H60.683L60.2969 121.564H64.4341L64.0479 122.173Z" fill="#CBCBCB"/>
<path d="M58.1608 121.668H58.0273V128.23H58.1608V121.668Z" fill="#CBCBCB"/>
<path d="M66.7018 121.668H66.5684V128.23H66.7018V121.668Z" fill="#CBCBCB"/>
<path d="M63.7026 117.31L63.6211 117.204C67.4766 114.22 72.0726 109.109 72.0726 101.703C72.0757 99.1084 71.3154 96.5711 69.8871 94.4089C68.4587 92.2466 66.426 90.5557 64.0437 89.5481L64.0957 89.4248C66.5022 90.4426 68.5555 92.1507 69.9984 94.3349C71.4412 96.5191 72.2092 99.0821 72.2061 101.703C72.2061 109.164 67.5818 114.308 63.7026 117.31Z" fill="#CBCBCB"/>
<path d="M59.4311 117.31L59.3496 117.204C63.2052 114.22 67.8012 109.109 67.8012 101.702C67.8022 99.1258 67.051 96.6053 65.6404 94.4522C64.2298 92.2991 62.2216 90.6079 59.8637 89.5873L59.9166 89.4644C62.2984 90.4953 64.327 92.2037 65.752 94.3786C67.1769 96.5536 67.9357 99.0997 67.9346 101.702C67.9346 109.164 63.3104 114.308 59.4311 117.31Z" fill="#CBCBCB"/>
<path d="M64.898 117.31C61.0188 114.308 56.3945 109.164 56.3945 101.703C56.3935 99.0997 57.1523 96.5536 58.5772 94.3786C60.0022 92.2037 62.0309 90.4953 64.4126 89.4644L64.4656 89.5873C62.1077 90.6079 60.0994 92.2991 58.6888 94.4522C57.2781 96.6053 56.5269 99.1258 56.528 101.703C56.528 109.109 61.124 114.22 64.9795 117.204L64.898 117.31Z" fill="#CBCBCB"/>
<path d="M60.6266 117.31C56.7473 114.308 52.1231 109.164 52.1231 101.702C52.1187 99.0717 52.8921 96.4987 54.3455 94.3092C55.7988 92.1196 57.8667 90.4118 60.2876 89.4019L60.339 89.5254C57.9425 90.5252 55.8953 92.2159 54.4566 94.3834C53.0179 96.551 52.2522 99.0981 52.2565 101.702C52.2565 109.109 56.8525 114.22 60.7081 117.204L60.6266 117.31Z" fill="#CBCBCB"/>
<path d="M62.2311 89.2598H62.0977V117.383H62.2311V89.2598Z" fill="#CBCBCB"/>
<path d="M60.6621 128.024L58.2148 130.479L58.3092 130.574L60.7565 128.118L60.6621 128.024Z" fill="#CBCBCB"/>
<path d="M61.8508 127.983L58.2129 131.822L58.3096 131.915L61.9475 128.075L61.8508 127.983Z" fill="#CBCBCB"/>
<path d="M67.2361 128.029H57.2266V129.235H67.2361V128.029Z" fill="white"/>
<path d="M67.3031 129.301H57.1602V127.962H67.3031V129.301ZM57.2936 129.167H67.1696V128.096H57.2936V129.167Z" fill="#CBCBCB"/>
<path d="M100.561 70.954C100.561 79.1744 91.9721 83.1079 91.9721 83.1079C91.9721 83.1079 83.2953 79.1744 83.1192 70.954C83.0156 66.1221 87.0236 62.2031 91.84 62.2031C94.1529 62.2031 96.3711 63.1251 98.0066 64.7662C99.642 66.4073 100.561 68.6331 100.561 70.954Z" fill="#E5E5E5"/>
<path d="M94.878 83.5942H89.064L88.3594 80.7656H95.5828L94.878 83.5942Z" fill="#CBCBCB"/>
<path d="M94.6792 88.4316H89.2617V91.2645H94.6792V88.4316Z" fill="white"/>
<path d="M94.7243 91.309H89.2188V88.3877H94.7243V91.309ZM89.3068 91.2206H94.6362V88.4761H89.3068V91.2206Z" fill="#CBCBCB"/>
<path d="M93.0814 83.9278H90.8603L90.6055 83.5259H93.3362L93.0814 83.9278Z" fill="#CBCBCB"/>
<path d="M89.1955 83.5942H89.1074V87.9255H89.1955V83.5942Z" fill="#CBCBCB"/>
<path d="M94.8342 83.5942H94.7461V87.9255H94.8342V83.5942Z" fill="#CBCBCB"/>
<path d="M92.8546 80.7179L92.8008 80.6479C95.3456 78.6787 98.3791 75.3051 98.3791 70.4163C98.3812 68.7041 97.8793 67.0294 96.9366 65.6022C95.9938 64.175 94.6521 63.0589 93.0797 62.3939L93.1141 62.3125C94.7024 62.9843 96.0577 64.1117 97.0101 65.5534C97.9624 66.995 98.4693 68.6867 98.4672 70.4163C98.4672 75.341 95.415 78.7366 92.8546 80.7179Z" fill="#CBCBCB"/>
<path d="M90.0362 80.7181L89.9824 80.6481C92.5273 78.6789 95.5608 75.3054 95.5608 70.4166C95.5615 68.7159 95.0657 67.0522 94.1346 65.6311C93.2036 64.2099 91.878 63.0936 90.3218 62.42L90.3567 62.3389C91.9287 63.0193 93.2677 64.147 94.2082 65.5825C95.1488 67.018 95.6496 68.6986 95.6489 70.4166C95.6489 75.3413 92.5967 78.7368 90.0362 80.7181Z" fill="#CBCBCB"/>
<path d="M93.642 80.7182C91.0815 78.7368 88.0293 75.3413 88.0293 70.4166C88.0286 68.6986 88.5294 67.018 89.47 65.5825C90.4105 64.147 91.7495 63.0193 93.3216 62.3389L93.3565 62.42C91.8002 63.0936 90.4747 64.2099 89.5436 65.6311C88.6125 67.0522 88.1167 68.7159 88.1174 70.4166C88.1174 75.3054 91.1509 78.6789 93.6957 80.6481L93.642 80.7182Z" fill="#CBCBCB"/>
<path d="M90.8236 80.7178C88.2632 78.7365 85.2109 75.341 85.2109 70.4163C85.2081 68.6799 85.7186 66.9816 86.6778 65.5364C87.6371 64.0912 89.002 62.964 90.5999 62.2974L90.6338 62.3789C89.052 63.0388 87.7008 64.1547 86.7512 65.5854C85.8015 67.0161 85.2962 68.6973 85.299 70.4163C85.299 75.3051 88.3326 78.6786 90.8774 80.6478L90.8236 80.7178Z" fill="#CBCBCB"/>
<path d="M91.883 62.2031H91.7949V80.7655H91.883V62.2031Z" fill="#CBCBCB"/>
<path d="M90.8458 87.7893L89.2305 89.4102L89.2927 89.4726L90.908 87.8518L90.8458 87.7893Z" fill="#CBCBCB"/>
<path d="M91.6316 87.7623L89.2305 90.2964L89.2943 90.3573L91.6955 87.8232L91.6316 87.7623Z" fill="#CBCBCB"/>
<path d="M95.1868 87.793H88.5801V88.5885H95.1868V87.793Z" fill="white"/>
<path d="M95.2299 88.633H88.5352V87.749H95.2299V88.633ZM88.6232 88.5446H95.1419V87.8374H88.6232V88.5446Z" fill="#CBCBCB"/>
<path d="M173.573 82.1931C173.628 82.1931 173.681 82.172 173.722 82.1341C173.762 82.0962 173.787 82.0443 173.791 81.9889C173.934 80.0382 174.806 78.2136 176.232 76.8802C177.658 75.5469 179.534 74.8032 181.483 74.7979C181.716 74.7979 181.961 74.8098 182.211 74.8333C182.253 74.8372 182.295 74.829 182.333 74.8096C182.37 74.7902 182.401 74.7604 182.422 74.7238C183.317 73.1511 184.654 71.8779 186.266 71.0629C187.878 70.248 189.694 69.9275 191.486 70.1414C193.279 70.3553 194.969 71.0942 196.345 72.2658C197.722 73.4374 198.724 74.9898 199.227 76.7294C199.24 76.776 199.268 76.8169 199.307 76.8456C199.346 76.8742 199.394 76.8891 199.442 76.8878L199.5 76.8861C199.53 76.885 199.561 76.884 199.591 76.884C201.07 76.8886 202.502 77.4004 203.651 78.3344C204.8 79.2684 205.596 80.5684 205.907 82.0188C205.917 82.0681 205.944 82.1123 205.983 82.1441C206.022 82.1758 206.071 82.1931 206.121 82.1931H220.782C220.81 82.1932 220.839 82.1876 220.866 82.1766C220.892 82.1656 220.916 82.1494 220.937 82.129C220.957 82.1086 220.973 82.0844 220.984 82.0577C220.995 82.031 221.001 82.0024 221.001 81.9735C221.001 81.9446 220.995 81.916 220.984 81.8893C220.973 81.8627 220.957 81.8384 220.937 81.818C220.916 81.7976 220.892 81.7815 220.866 81.7705C220.839 81.7595 220.81 81.7538 220.782 81.7539H206.296C205.932 80.2453 205.074 78.9027 203.86 77.9404C202.646 76.9781 201.146 76.4516 199.599 76.4448C199.048 74.6572 197.992 73.0685 196.558 71.8718C195.125 70.6751 193.376 69.9219 191.524 69.7036C189.672 69.4854 187.797 69.8115 186.126 70.6424C184.455 71.4733 183.061 72.7731 182.112 74.3841C181.897 74.3672 181.686 74.3588 181.483 74.3588C179.423 74.3644 177.441 75.1503 175.934 76.5594C174.427 77.9684 173.505 79.8966 173.354 81.9581C173.352 81.9869 173.356 82.0158 173.365 82.0432C173.374 82.0705 173.388 82.0958 173.407 82.1176C173.426 82.1393 173.449 82.1572 173.475 82.17C173.5 82.1829 173.528 82.1906 173.557 82.1926C173.562 82.1929 173.567 82.1931 173.573 82.1931Z" fill="#CBCBCB"/>
<path d="M176.176 85.0085H212.064C212.122 85.0085 212.178 84.9854 212.219 84.9442C212.26 84.903 212.283 84.8472 212.283 84.7889C212.283 84.7307 212.26 84.6748 212.219 84.6337C212.178 84.5925 212.122 84.5693 212.064 84.5693H176.176C176.118 84.5693 176.062 84.5925 176.021 84.6337C175.98 84.6748 175.957 84.7307 175.957 84.7889C175.957 84.8472 175.98 84.903 176.021 84.9442C176.062 84.9854 176.118 85.0085 176.176 85.0085Z" fill="#CBCBCB"/>
<path d="M203.311 88.1926H215.346C215.404 88.1924 215.46 88.1692 215.501 88.128C215.542 88.0869 215.564 88.0311 215.564 87.973C215.564 87.9149 215.542 87.8591 215.501 87.818C215.46 87.7768 215.404 87.7536 215.346 87.7534H203.311C203.282 87.7534 203.253 87.7591 203.227 87.7701C203.2 87.7812 203.176 87.7973 203.156 87.8177C203.136 87.8381 203.119 87.8623 203.108 87.889C203.097 87.9156 203.092 87.9442 203.092 87.973C203.092 88.0018 203.097 88.0304 203.108 88.057C203.119 88.0837 203.136 88.1079 203.156 88.1283C203.176 88.1487 203.2 88.1648 203.227 88.1759C203.253 88.1869 203.282 88.1926 203.311 88.1926Z" fill="#CBCBCB"/>
<path d="M147.384 141.176H146.663L146.32 138.388H147.384V141.176Z" fill="#9F616A"/>
<path d="M147.567 141.876H145.244V141.847C145.244 141.606 145.34 141.376 145.509 141.205C145.679 141.035 145.909 140.94 146.148 140.939H147.567V141.876Z" fill="#2F2E41"/>
<path d="M156.672 139.806L156.055 140.178L154.33 137.965L155.241 137.416L156.672 139.806Z" fill="#9F616A"/>
<path d="M155.199 141.512L155.183 141.487C155.06 141.28 155.024 141.033 155.082 140.8C155.14 140.567 155.287 140.366 155.493 140.242L156.709 139.509L157.189 140.312L155.199 141.512Z" fill="#2F2E41"/>
<path d="M147.571 140.6L147.558 140.6C147.208 140.599 146.858 140.579 146.509 140.54C146.377 140.526 146.233 140.512 146.059 140.498L146.053 140.497C145.935 140.461 145.932 139.348 145.982 135.535C146.008 133.582 146.037 131.369 146.002 129.959L146.002 129.946L146.012 129.936C146.639 129.385 147.386 128.991 148.194 128.785C149.001 128.579 149.846 128.568 150.659 128.753L150.671 128.755L150.678 128.767C151.386 129.969 152.455 131.7 153.488 133.374C155.861 137.218 156.54 138.348 156.466 138.434L156.457 138.441C156.295 138.522 156.173 138.584 156.07 138.638C155.66 138.85 155.24 139.041 154.81 139.208L154.791 139.216L154.777 139.2C152.369 136.553 150.365 133.596 149.126 130.862C148.981 131.795 148.805 133.014 148.62 134.302C148.086 138.005 147.725 140.443 147.579 140.591L147.571 140.6Z" fill="#2F2E41"/>
<path d="M148.22 130.244C149.655 130.238 151.082 130.477 152.437 130.953C152.484 128.669 151.722 126.444 150.285 124.672L150.274 124.66L150.28 124.644C150.658 123.547 151.049 122.414 151.398 121.286L151.393 121.267C151.148 120.393 150.622 119.51 149.785 118.567C149.695 118.473 149.572 118.416 149.441 118.41C149.311 118.403 149.182 118.447 149.083 118.531C148.349 119.204 147.778 120.035 147.413 120.962C147.047 121.889 146.896 122.887 146.972 123.881L146.973 123.887L146.971 123.892C146.316 126.119 146.078 127.264 145.868 128.273C145.715 129.009 145.583 129.647 145.316 130.558C146.27 130.349 147.244 130.244 148.22 130.244Z" fill="#CBCBCB"/>
<path opacity="0.1" d="M150.334 123.203L148.202 127.859L146.984 126.623L150.334 123.203Z" fill="black"/>
<path d="M149.423 118.114C150.26 118.114 150.939 117.432 150.939 116.592C150.939 115.752 150.26 115.07 149.423 115.07C148.585 115.07 147.906 115.752 147.906 116.592C147.906 117.432 148.585 118.114 149.423 118.114Z" fill="#9F616A"/>
<path d="M147.584 115.732H149.992V114.679C149.463 114.469 148.946 114.289 148.634 114.679C148.355 114.679 148.088 114.79 147.891 114.988C147.695 115.185 147.584 115.453 147.584 115.732Z" fill="#2F2E41"/>
<path d="M150.126 114.493C151.565 114.493 151.968 116.304 151.968 117.325C151.968 117.895 151.711 118.099 151.308 118.167L151.165 117.405L150.832 118.2C150.718 118.201 150.599 118.199 150.476 118.196L150.363 117.963L150.11 118.192C149.1 118.194 148.283 118.341 148.283 117.325C148.283 116.304 148.637 114.493 150.126 114.493Z" fill="#2F2E41"/>
<path d="M193.607 44.1938C193.607 84.3002 151.704 103.491 151.704 103.491C151.704 103.491 109.371 84.3002 108.512 44.1938C108.006 20.6201 127.561 1.5 151.059 1.5C174.557 1.5 193.607 20.6147 193.607 44.1938Z" fill="#007AFF"/>
<path d="M152.602 140.86H151.719L151.299 137.441H152.602V140.86Z" fill="#FFB7B7"/>
<path d="M151.088 140.607H152.792V141.683H150.016C150.016 141.542 150.043 141.402 150.097 141.271C150.151 141.141 150.23 141.022 150.33 140.922C150.429 140.822 150.548 140.743 150.678 140.689C150.808 140.635 150.947 140.607 151.088 140.607Z" fill="#2F2E41"/>
<path d="M155.917 140.86H155.034L154.613 137.441H155.917L155.917 140.86Z" fill="#FFB7B7"/>
<path d="M154.403 140.607H156.106V141.683H153.33C153.33 141.398 153.443 141.124 153.644 140.922C153.845 140.72 154.118 140.607 154.403 140.607Z" fill="#2F2E41"/>
<path d="M155.808 130.679C155.713 130.617 155.633 130.536 155.572 130.44C155.512 130.344 155.473 130.236 155.459 130.123C155.445 130.01 155.456 129.896 155.49 129.788C155.525 129.68 155.583 129.581 155.66 129.497L155.078 121.216L156.753 121.379L156.799 129.489C156.93 129.628 157.006 129.81 157.011 130.001C157.017 130.192 156.953 130.379 156.831 130.526C156.708 130.672 156.537 130.769 156.348 130.797C156.16 130.825 155.968 130.783 155.808 130.679Z" fill="#FFB7B7"/>
<path d="M152.56 139.138L151.588 139.091C151.505 139.088 151.427 139.052 151.369 138.992C151.312 138.932 151.279 138.852 151.279 138.769L151.211 128.897C151.211 128.85 151.22 128.804 151.24 128.761C151.259 128.718 151.287 128.68 151.322 128.649C151.357 128.619 151.399 128.596 151.444 128.583C151.488 128.569 151.536 128.566 151.582 128.573L155.472 129.139C155.548 129.15 155.619 129.188 155.67 129.247C155.721 129.306 155.749 129.381 155.749 129.459L156.25 138.606C156.25 138.649 156.242 138.692 156.226 138.731C156.209 138.771 156.186 138.807 156.155 138.838C156.125 138.868 156.089 138.892 156.05 138.909C156.011 138.925 155.968 138.934 155.925 138.934H154.877C154.8 138.934 154.725 138.907 154.666 138.856C154.607 138.806 154.569 138.736 154.557 138.659C154.557 138.659 153.765 131.798 153.656 131.802C153.547 131.804 152.897 138.852 152.897 138.852C152.888 138.931 152.85 139.003 152.79 139.056C152.731 139.109 152.655 139.138 152.575 139.138C152.57 139.138 152.565 139.138 152.56 139.138Z" fill="#2F2E41"/>
<path d="M155.457 123.999C155.418 123.97 155.386 123.934 155.362 123.891C155.339 123.849 155.326 123.801 155.323 123.753L155.201 121.521C155.188 121.3 155.258 121.082 155.397 120.909C155.535 120.737 155.732 120.622 155.95 120.587C156.168 120.551 156.391 120.598 156.577 120.718C156.762 120.838 156.897 121.023 156.955 121.237L157.494 123.233C157.516 123.316 157.505 123.405 157.462 123.479C157.419 123.554 157.349 123.609 157.266 123.632L155.732 124.049C155.685 124.062 155.636 124.064 155.589 124.055C155.541 124.047 155.496 124.027 155.457 123.999Z" fill="#3F3D56"/>
<path d="M154.023 118.694C155.001 118.694 155.793 117.899 155.793 116.918C155.793 115.938 155.001 115.143 154.023 115.143C153.046 115.143 152.254 115.938 152.254 116.918C152.254 117.899 153.046 118.694 154.023 118.694Z" fill="#FFB7B7"/>
<path d="M155.277 118.323C155.203 118.403 155.107 118.46 155.002 118.488C154.897 118.515 154.786 118.512 154.682 118.479C154.579 118.445 154.487 118.383 154.418 118.299C154.348 118.215 154.304 118.112 154.29 118.004C154.287 117.967 154.287 117.929 154.291 117.892C154.313 117.678 154.436 117.484 154.407 117.259C154.4 117.203 154.379 117.149 154.346 117.103C154.083 116.75 153.466 117.262 153.218 116.942C153.065 116.745 153.244 116.436 153.127 116.217C152.973 115.928 152.517 116.071 152.23 115.912C151.912 115.736 151.931 115.245 152.14 114.947C152.277 114.77 152.451 114.627 152.649 114.525C152.847 114.424 153.065 114.368 153.288 114.361C153.733 114.35 154.175 114.437 154.584 114.615C155.067 114.772 155.492 115.068 155.809 115.467C155.972 115.728 156.076 116.022 156.112 116.329C156.148 116.635 156.116 116.946 156.018 117.238C155.911 117.597 155.546 118.035 155.277 118.323Z" fill="#2F2E41"/>
<path d="M155.79 119.88C155.759 119.858 155.727 119.836 155.695 119.814C155.526 119.701 155.342 119.61 155.148 119.545V119.079H153.779V119.511C153.326 119.637 152.919 119.894 152.609 120.25C152.3 120.605 152.101 121.045 152.039 121.513L151.107 128.457C151.101 128.5 151.103 128.544 151.115 128.586C151.126 128.629 151.146 128.668 151.174 128.703C151.2 128.737 151.233 128.765 151.271 128.786C151.309 128.806 151.351 128.819 151.394 128.823C152.047 128.908 152.676 129.125 153.244 129.459C153.656 129.688 154.12 129.807 154.591 129.804C154.965 129.803 155.337 129.737 155.688 129.608C155.748 129.586 155.8 129.547 155.837 129.496C155.874 129.444 155.896 129.383 155.898 129.319C155.932 128.572 156.128 124.725 156.7 122.379C156.811 121.919 156.784 121.436 156.622 120.991C156.46 120.546 156.17 120.16 155.79 119.88Z" fill="#3F3D56"/>
<path d="M165.885 105.863H137.52L134.082 92.0625H169.323L165.885 105.863Z" fill="#3F3D56"/>
<path d="M164.919 129.463H138.488V143.284H164.919V129.463Z" fill="white"/>
<path d="M165.134 143.5H138.273V129.248H165.134V143.5ZM138.703 143.069H164.704V129.679H138.703V143.069Z" fill="#3F3D56"/>
<path d="M157.12 107.49H146.285L145.041 105.529H158.364L157.12 107.49Z" fill="#3F3D56"/>
<path d="M138.164 105.863H137.734V126.994H138.164V105.863Z" fill="#3F3D56"/>
<path d="M165.67 105.863H165.24V126.994H165.67V105.863Z" fill="#3F3D56"/>
<path d="M156.01 91.8291L155.748 91.4875C168.164 81.8801 182.964 65.421 182.964 41.5695C182.974 33.2158 180.526 25.0451 175.926 18.0822C171.326 11.1192 164.78 5.67399 157.109 2.42936L157.276 2.03223C165.026 5.30977 171.638 10.8103 176.284 17.8439C180.931 24.8775 183.404 33.131 183.394 41.5695C183.394 65.5961 168.503 82.1625 156.01 91.8291Z" fill="#3F3D56"/>
<path d="M142.259 91.8291L141.996 91.4876C154.412 81.8801 169.212 65.421 169.212 41.5694C169.216 33.2719 166.797 25.1552 162.254 18.2218C157.712 11.2883 151.244 5.84203 143.652 2.55554L143.822 2.15967C151.492 5.47951 158.025 10.9811 162.613 17.9848C167.202 24.9886 169.645 33.1877 169.642 41.5694C169.642 65.5962 154.751 82.1626 142.259 91.8291Z" fill="#3F3D56"/>
<path d="M159.858 91.8286C147.366 82.1621 132.475 65.5958 132.475 41.569C132.471 33.1873 134.915 24.9881 139.503 17.9843C144.092 10.9805 150.625 5.47895 158.295 2.15918L158.465 2.55505C150.872 5.84149 144.405 11.2878 139.863 18.2212C135.32 25.1547 132.901 33.2715 132.904 41.569C132.904 65.4205 147.705 81.8796 160.12 91.4871L159.858 91.8286Z" fill="#3F3D56"/>
<path d="M146.106 91.8289C133.614 82.1624 118.723 65.5962 118.723 41.5694C118.709 33.0976 121.199 24.8121 125.879 17.7612C130.559 10.7102 137.219 5.21071 145.014 1.9585L145.18 2.35648C137.463 5.576 130.87 11.0202 126.237 18.0004C121.604 24.9805 119.139 33.1828 119.152 41.5694C119.152 65.421 133.953 81.8801 146.368 91.4874L146.106 91.8289Z" fill="#3F3D56"/>
<path d="M151.274 1.5H150.844V92.0627H151.274V1.5Z" fill="#3F3D56"/>
<path d="M146.217 126.329L138.336 134.237L138.64 134.542L146.521 126.634L146.217 126.329Z" fill="#3F3D56"/>
<path d="M150.047 126.198L138.332 138.562L138.643 138.859L150.358 126.495L150.047 126.198Z" fill="#3F3D56"/>
<path d="M167.389 126.347H135.156V130.228H167.389V126.347Z" fill="white"/>
<path d="M167.604 130.444H134.941V126.132H167.604V130.444ZM135.371 130.013H167.174V126.563H135.371V130.013Z" fill="#3F3D56"/>
<path d="M145.582 128.152C145.669 128.146 145.752 128.121 145.828 128.079C145.904 128.037 145.969 127.979 146.02 127.909C146.07 127.839 146.105 127.758 146.122 127.673C146.138 127.588 146.136 127.501 146.114 127.416L147.871 126.262L146.869 125.828L145.355 126.991C145.217 127.035 145.099 127.13 145.026 127.255C144.952 127.381 144.926 127.53 144.955 127.673C144.983 127.816 145.062 127.944 145.178 128.032C145.293 128.121 145.437 128.163 145.582 128.152Z" fill="#9F616A"/>
<path d="M147.272 127.321L147.25 127.305C146.832 126.996 146.368 126.677 145.92 126.368L145.893 126.35L145.914 126.325C146.872 125.2 147.83 124.026 148.758 122.89L148.756 122.885L148.765 122.881L148.768 122.877L148.77 122.878L148.776 122.875L148.751 122.877L148.465 120.628C148.323 120.394 148.251 120.125 148.257 119.851C148.262 119.577 148.345 119.311 148.496 119.083C148.669 118.837 148.927 118.664 149.22 118.597C149.513 118.53 149.82 118.573 150.082 118.719C150.212 118.807 150.32 118.922 150.4 119.057C150.479 119.192 150.527 119.343 150.54 119.5C150.558 119.639 150.545 119.78 150.502 119.914C150.459 120.047 150.387 120.169 150.291 120.271C150.39 121.363 150.433 122.459 150.421 123.555L150.421 123.565L150.415 123.574C149.426 124.834 148.34 126.088 147.29 127.3L147.272 127.321Z" fill="#CBCBCB"/>
<path d="M147.611 120.407C147.62 120.446 147.626 120.485 147.629 120.525L150.724 122.317L151.476 121.882L152.278 122.936L150.668 124.087L147.138 121.292C146.994 121.345 146.837 121.353 146.688 121.315C146.539 121.277 146.406 121.194 146.305 121.078C146.204 120.962 146.141 120.818 146.124 120.665C146.107 120.511 146.137 120.357 146.209 120.221C146.282 120.085 146.394 119.975 146.531 119.905C146.667 119.834 146.822 119.808 146.974 119.828C147.126 119.848 147.269 119.914 147.383 120.018C147.497 120.121 147.576 120.257 147.611 120.407Z" fill="#FFB7B7"/>
<path d="M150.834 122.164C150.829 122.116 150.834 122.067 150.851 122.022C150.867 121.976 150.893 121.934 150.927 121.9L152.502 120.319C152.658 120.163 152.867 120.069 153.087 120.058C153.307 120.046 153.524 120.117 153.696 120.256C153.867 120.396 153.981 120.594 154.016 120.813C154.051 121.031 154.003 121.255 153.883 121.441L152.761 123.175C152.715 123.248 152.641 123.298 152.557 123.316C152.473 123.334 152.385 123.318 152.313 123.271L150.98 122.403C150.939 122.377 150.905 122.342 150.88 122.3C150.855 122.259 150.839 122.212 150.834 122.164Z" fill="#3F3D56"/>
<path d="M129.403 106.774C129.348 106.774 129.295 106.753 129.254 106.715C129.214 106.677 129.189 106.625 129.185 106.57C129.042 104.619 128.17 102.795 126.744 101.461C125.318 100.128 123.442 99.3842 121.493 99.379C121.26 99.379 121.015 99.3909 120.764 99.4144C120.723 99.4183 120.681 99.4101 120.643 99.3907C120.606 99.3713 120.575 99.3415 120.554 99.3049C119.659 97.7322 118.322 96.4589 116.71 95.644C115.097 94.8291 113.282 94.5085 111.49 94.7225C109.697 94.9364 108.007 95.6752 106.631 96.8468C105.254 98.0184 104.252 99.5709 103.749 101.31C103.736 101.357 103.707 101.398 103.668 101.427C103.629 101.455 103.582 101.47 103.534 101.469L103.476 101.467C103.445 101.466 103.415 101.465 103.385 101.465C101.906 101.47 100.474 101.981 99.3247 102.915C98.1759 103.849 97.3799 105.149 97.0688 106.6C97.0584 106.649 97.0315 106.693 96.9925 106.725C96.9535 106.757 96.9048 106.774 96.8546 106.774H82.1941C82.1653 106.774 82.1368 106.769 82.1102 106.758C82.0835 106.747 82.0593 106.731 82.0389 106.71C82.0186 106.69 82.0024 106.665 81.9913 106.639C81.9803 106.612 81.9746 106.583 81.9746 106.555C81.9746 106.526 81.9803 106.497 81.9913 106.47C82.0024 106.444 82.0186 106.419 82.0389 106.399C82.0593 106.379 82.0835 106.363 82.1102 106.352C82.1368 106.341 82.1653 106.335 82.1941 106.335H96.6795C97.0442 104.826 97.9019 103.484 99.1158 102.521C100.33 101.559 101.83 101.033 103.377 101.026C103.928 99.2382 104.984 97.6496 106.417 96.4529C107.851 95.2562 109.6 94.5029 111.452 94.2847C113.304 94.0664 115.179 94.3926 116.85 95.2235C118.521 96.0543 119.915 97.3542 120.863 98.9651C121.079 98.9483 121.29 98.9398 121.493 98.9398C123.553 98.9454 125.535 99.7314 127.042 101.14C128.549 102.549 129.471 104.478 129.622 106.539C129.624 106.568 129.62 106.597 129.611 106.624C129.602 106.652 129.587 106.677 129.569 106.699C129.55 106.72 129.527 106.738 129.501 106.751C129.475 106.764 129.447 106.772 129.419 106.774C129.414 106.774 129.408 106.774 129.403 106.774Z" fill="#CBCBCB"/>
<path d="M126.801 109.59H90.9129C90.8841 109.59 90.8556 109.584 90.8289 109.573C90.8023 109.562 90.7781 109.546 90.7577 109.525C90.7373 109.505 90.7211 109.481 90.7101 109.454C90.699 109.427 90.6934 109.399 90.6934 109.37C90.6934 109.341 90.699 109.312 90.7101 109.286C90.7211 109.259 90.7373 109.235 90.7577 109.214C90.7781 109.194 90.8023 109.178 90.8289 109.167C90.8556 109.156 90.8841 109.15 90.9129 109.15H126.801C126.859 109.15 126.915 109.174 126.956 109.215C126.997 109.256 127.02 109.312 127.02 109.37C127.02 109.428 126.997 109.484 126.956 109.525C126.915 109.566 126.859 109.59 126.801 109.59Z" fill="#CBCBCB"/>
<path d="M99.6654 112.774H87.6297C87.6009 112.774 87.5723 112.769 87.5457 112.758C87.5191 112.747 87.4949 112.73 87.4745 112.71C87.4541 112.69 87.4379 112.665 87.4269 112.639C87.4158 112.612 87.4102 112.583 87.4102 112.555C87.4102 112.526 87.4158 112.497 87.4269 112.47C87.4379 112.444 87.4541 112.419 87.4745 112.399C87.4949 112.379 87.5191 112.362 87.5457 112.351C87.5723 112.34 87.6009 112.335 87.6297 112.335H99.6654C99.6942 112.335 99.7227 112.34 99.7493 112.351C99.776 112.362 99.8002 112.379 99.8206 112.399C99.841 112.419 99.8571 112.444 99.8682 112.47C99.8792 112.497 99.8849 112.526 99.8849 112.555C99.8849 112.583 99.8792 112.612 99.8682 112.639C99.8571 112.665 99.841 112.69 99.8206 112.71C99.8002 112.73 99.776 112.747 99.7493 112.758C99.7227 112.769 99.6942 112.774 99.6654 112.774Z" fill="#CBCBCB"/>
</g>
<defs>
<clipPath id="clip0_37_5830">
<rect width="262" height="142" fill="white" transform="translate(0 0.5)"/>
</clipPath>
</defs>
</svg>
