<svg width="24.000000" height="24.000000" viewBox="0 0 24 24" fill="none" xmlns="http://www.w3.org/2000/svg" xmlns:xlink="http://www.w3.org/1999/xlink">
	<desc>
			Created with Pixso.
	</desc>
	<defs>
		<clipPath id="clip25_8764">
			<rect id="Broken / School / Book 3" width="24.000000" height="24.000000" fill="white" fill-opacity="0"/>
		</clipPath>
	</defs>
	<g clip-path="url(#clip25_8764)">
		<path id="Vector" d="M4 18.22C4.27 17.18 5.08 16.37 6.12 16.1C6.5 16 6.96 16 7.89 16L19.89 16" stroke="#007AFF" stroke-opacity="1.000000" stroke-width="1.500000"/>
		<path id="Vector" d="M8 7L16 7" stroke="#007AFF" stroke-opacity="1.000000" stroke-width="1.500000" stroke-linecap="round"/>
		<path id="Vector" d="M8 10.5L13 10.5" stroke="#007AFF" stroke-opacity="1.000000" stroke-width="1.500000" stroke-linecap="round"/>
		<path id="Vector" d="M19.5 19L8 19" stroke="#007AFF" stroke-opacity="1.000000" stroke-width="1.500000" stroke-linecap="round"/>
		<path id="Vector" d="M10 22C7.17 22 5.75 22 4.87 21.12C4 20.24 4 18.82 4 16L4 8C4 5.17 4 3.75 4.87 2.87C5.75 2 7.17 2 10 2L14 2C16.82 2 18.24 2 19.12 2.87C20 3.75 20 5.17 20 8M20 12L20 16C20 18.82 20 20.24 19.12 21.12C18.24 22 16.82 22 14 22" stroke="#007AFF" stroke-opacity="1.000000" stroke-width="1.500000"/>
	</g>
</svg>
