<svg width="17" height="17" viewBox="0 0 17 17" fill="none" xmlns="http://www.w3.org/2000/svg">
<path fill-rule="evenodd" clip-rule="evenodd" d="M16.5 8.73633C16.5 13.1546 12.9183 16.7363 8.5 16.7363C4.08172 16.7363 0.5 13.1546 0.5 8.73633C0.5 4.31805 4.08172 0.736328 8.5 0.736328C12.9183 0.736328 16.5 4.31805 16.5 8.73633ZM8.78668 6.64228C8.00857 6.96593 6.45342 7.63579 4.12126 8.65188C3.74256 8.80247 3.54417 8.9498 3.52611 9.09386C3.49559 9.33733 3.80047 9.43319 4.21565 9.56374C4.27212 9.5815 4.33064 9.5999 4.39062 9.6194C4.79909 9.75218 5.34855 9.90751 5.63419 9.91368C5.8933 9.91928 6.18249 9.81246 6.50176 9.59322C8.68077 8.12233 9.80559 7.37887 9.87621 7.36284C9.92603 7.35153 9.99507 7.33732 10.0418 7.37889C10.0886 7.42047 10.084 7.49921 10.0791 7.52033C10.0489 7.64909 8.85208 8.76172 8.23275 9.33751C8.03967 9.51701 7.90272 9.64434 7.87472 9.67342C7.812 9.73856 7.74809 9.80018 7.68665 9.8594C7.30718 10.2252 7.02261 10.4995 7.70241 10.9475C8.02909 11.1628 8.29051 11.3408 8.55131 11.5184C8.83612 11.7124 9.12019 11.9058 9.48774 12.1468C9.58139 12.2082 9.67082 12.2719 9.75793 12.334C10.0894 12.5703 10.3872 12.7826 10.7551 12.7487C10.9688 12.7291 11.1896 12.5281 11.3018 11.9286C11.5668 10.5118 12.0878 7.44197 12.2081 6.17698C12.2187 6.06615 12.2054 5.92431 12.1948 5.86204C12.1841 5.79978 12.1618 5.71107 12.0809 5.64539C11.9851 5.56762 11.8371 5.55122 11.7709 5.55238C11.47 5.55768 11.0084 5.71821 8.78668 6.64228Z" fill="#D1D1D6"/>
</svg>
