<svg width="22.000000" height="22.000000" viewBox="0 0 22 22" fill="none" xmlns="http://www.w3.org/2000/svg" xmlns:xlink="http://www.w3.org/1999/xlink">
	<desc>
			Created with Pixso.
	</desc>
	<defs>
		<clipPath id="clip65_9306">
			<rect id="Broken / Messages, Conversation /  Chat  Square Code" rx="0.000000" width="21.000000" height="21.000000" transform="translate(0.500000 0.500000)" fill="white" fill-opacity="0"/>
		</clipPath>
	</defs>
	<g clip-path="url(#clip65_9306)">
		<path id="Vector" d="M2.18 14.58C2.64 15.71 3.53 16.6 4.66 17.06C5.26 17.31 5.98 17.38 7.13 17.4C7.91 17.42 8.3 17.42 8.61 17.6C8.92 17.78 9.12 18.11 9.5 18.76L10 19.6C10.44 20.35 11.55 20.35 11.99 19.6L12.49 18.76C12.87 18.11 13.07 17.78 13.38 17.6C13.69 17.42 14.08 17.42 14.85 17.4C16 17.38 16.73 17.31 17.33 17.06C18.45 16.6 19.35 15.71 19.81 14.58C20.16 13.74 20.16 12.67 20.16 10.54L20.16 9.62C20.16 6.62 20.16 5.12 19.49 4.02C19.11 3.4 18.59 2.88 17.97 2.5C16.87 1.83 15.37 1.83 12.37 1.83L9.62 1.83C6.62 1.83 5.12 1.83 4.02 2.5C3.4 2.88 2.88 3.4 2.5 4.02C1.83 5.12 1.83 6.62 1.83 9.62" stroke="#1A8CFF" stroke-opacity="1.000000" stroke-width="1.500000" stroke-linecap="round"/>
		<path id="Vector" d="M14.2 7.17L14.36 7.33C15.58 8.55 16.19 9.16 16.19 9.92C16.19 10.68 15.58 11.29 14.36 12.52L14.2 12.67" stroke="#1A8CFF" stroke-opacity="1.000000" stroke-width="1.500000" stroke-linecap="round"/>
		<path id="Vector" d="M12.18 5.5L11 9.92L9.81 14.35" stroke="#1A8CFF" stroke-opacity="1.000000" stroke-width="1.500000" stroke-linecap="round"/>
		<path id="Vector" d="M7.79 7.17L7.63 7.33C6.41 8.55 5.8 9.16 5.8 9.92C5.8 10.68 6.41 11.29 7.63 12.52L7.79 12.67" stroke="#1A8CFF" stroke-opacity="1.000000" stroke-width="1.500000" stroke-linecap="round"/>
	</g>
</svg>
