<svg width="24.000000" height="24.000000" viewBox="0 0 24 24" fill="none" xmlns="http://www.w3.org/2000/svg" xmlns:xlink="http://www.w3.org/1999/xlink">
	<desc>
			Created with Pixso.
	</desc>
	<defs>
		<clipPath id="clip67_9586">
			<rect id="Broken" rx="0.000000" width="23.000000" height="23.000000" transform="translate(0.500000 0.500000)" fill="white" fill-opacity="0"/>
		</clipPath>
	</defs>
	<g clip-path="url(#clip67_9586)">
		<path id="Vector" d="M15 4C16.04 4 16.56 4 17 4.17C17.43 4.34 17.81 4.63 18.09 5C18.37 5.38 18.51 5.89 18.79 6.89L19.5 9.5M4.5 9.5L5.2 6.89C5.48 5.89 5.62 5.38 5.9 5C6.18 4.63 6.56 4.34 6.99 4.17C7.43 4 7.95 4 9 4" stroke="#007AFF" stroke-opacity="1.000000" stroke-width="1.500000"/>
		<path id="Vector" d="M14 3C14.55 3 15 3.44 15 4C15 4.55 14.55 5 14 5L10 5C9.44 5 9 4.55 9 4C9 3.44 9.44 3 10 3L14 3Z" stroke="#007AFF" stroke-opacity="1.000000" stroke-width="1.500000"/>
		<path id="Vector" d="M8 13L8 17" stroke="#007AFF" stroke-opacity="1.000000" stroke-width="1.500000" stroke-linejoin="round" stroke-linecap="round"/>
		<path id="Vector" d="M16 13L16 17" stroke="#007AFF" stroke-opacity="1.000000" stroke-width="1.500000" stroke-linejoin="round" stroke-linecap="round"/>
		<path id="Vector" d="M12 13L12 17" stroke="#007AFF" stroke-opacity="1.000000" stroke-width="1.500000" stroke-linejoin="round" stroke-linecap="round"/>
		<path id="Vector" d="M3.86 16.45C4.41 18.63 4.68 19.72 5.49 20.36C6.31 21 7.43 21 9.68 21L14.31 21C16.56 21 17.69 21 18.5 20.36C19.31 19.72 19.59 18.63 20.13 16.45C20.99 13.02 21.42 11.3 20.52 10.15C19.62 9 17.85 9 14.31 9L9.68 9C6.14 9 4.37 9 3.47 10.15C2.94 10.83 2.87 11.7 3.08 13" stroke="#007AFF" stroke-opacity="1.000000" stroke-width="1.500000" stroke-linecap="round"/>
	</g>
</svg>
