<svg width="45.000000" height="41.736328" viewBox="0 0 45 41.7363" fill="none" xmlns="http://www.w3.org/2000/svg" xmlns:xlink="http://www.w3.org/1999/xlink">
	<desc>
			Created with Pixso.
	</desc>
	<defs/>
	<path d="M44.25 33.98C43.89 33.41 43.42 32.91 42.87 32.52C42.31 32.13 41.68 31.85 41.02 31.71C38.49 31.12 36.29 29.55 34.91 27.34C33.52 25.14 33.07 22.48 33.65 19.94C33.87 18.96 33.8 17.93 33.44 16.99C33.08 16.05 32.45 15.24 31.63 14.66C30.81 14.07 29.84 13.75 28.83 13.71C27.83 13.68 26.83 13.95 25.98 14.48C25.12 15.01 24.45 15.78 24.03 16.69C23.61 17.61 23.47 18.63 23.63 19.62C23.79 20.61 24.24 21.54 24.92 22.28C25.6 23.01 26.49 23.54 27.46 23.77C28.73 24.06 29.92 24.59 30.98 25.34C32.04 26.09 32.94 27.04 33.63 28.13C34.32 29.23 34.79 30.45 35.01 31.73C35.22 33.01 35.19 34.31 34.9 35.58C34.73 36.39 34.76 37.24 34.99 38.04C35.22 38.84 35.64 39.57 36.22 40.17C36.79 40.77 37.51 41.22 38.3 41.48C39.09 41.74 39.93 41.8 40.75 41.66C41.57 41.52 42.35 41.18 43 40.67C43.66 40.16 44.19 39.5 44.53 38.75C44.88 37.99 45.04 37.16 44.99 36.33C44.94 35.5 44.69 34.69 44.25 33.98Z" fill="#007AFF" fill-opacity="1.000000" fill-rule="nonzero"/>
	<path d="M12.88 28.31C13.77 28.8 14.79 29.01 15.8 28.92C16.81 28.82 17.77 28.42 18.56 27.78C19.35 27.13 19.92 26.27 20.21 25.29C20.5 24.32 20.5 23.28 20.19 22.31C19.81 21.07 19.67 19.77 19.79 18.48C19.91 17.19 20.28 15.93 20.88 14.79C21.49 13.64 22.31 12.63 23.31 11.8C24.31 10.97 25.46 10.35 26.7 9.97C27.66 9.67 28.51 9.09 29.14 8.31C29.78 7.52 30.16 6.57 30.26 5.57C30.35 4.56 30.14 3.56 29.66 2.67C29.18 1.79 28.45 1.06 27.57 0.59C26.68 0.12 25.67 -0.08 24.67 0.02C23.66 0.12 22.71 0.52 21.94 1.15C21.16 1.79 20.59 2.65 20.29 3.61C20 4.57 20 5.6 20.29 6.57C21.05 9.06 20.79 11.74 19.57 14.04C18.35 16.34 16.27 18.07 13.79 18.84C12.81 19.12 11.93 19.7 11.28 20.48C10.63 21.27 10.23 22.23 10.13 23.25C10.03 24.27 10.24 25.29 10.73 26.19C11.22 27.08 11.97 27.81 12.88 28.28L12.88 28.31Z" fill="#0A84FF" fill-opacity="0.250000" fill-rule="nonzero"/>
	<path d="M26.01 27.48C25.33 27.5 24.67 27.66 24.05 27.95C23.43 28.23 22.88 28.64 22.42 29.14C20.64 31.04 18.19 32.16 15.59 32.25C12.99 32.35 10.46 31.41 8.55 29.64C8.06 29.18 7.48 28.82 6.84 28.58C6.21 28.34 5.53 28.24 4.86 28.26C4.03 28.3 3.22 28.54 2.5 28.97C1.78 29.39 1.18 29.99 0.75 30.7C0.31 31.41 0.06 32.21 0 33.04C-0.05 33.88 0.11 34.71 0.45 35.47C0.79 36.22 1.32 36.89 1.98 37.4C2.63 37.91 3.41 38.25 4.23 38.39C5.05 38.53 5.89 38.47 6.68 38.21C7.48 37.95 8.19 37.5 8.77 36.9C9.65 35.95 10.71 35.18 11.89 34.64C13.06 34.1 14.34 33.79 15.63 33.74C16.93 33.69 18.22 33.9 19.44 34.35C20.65 34.8 21.77 35.49 22.72 36.37C23.34 36.93 24.08 37.33 24.89 37.53C25.7 37.73 26.55 37.74 27.36 37.54C28.17 37.34 28.92 36.95 29.54 36.39C30.16 35.84 30.64 35.14 30.93 34.35C31.22 33.57 31.31 32.73 31.2 31.91C31.09 31.08 30.78 30.29 30.29 29.61C29.81 28.94 29.16 28.39 28.42 28.01C27.67 27.64 26.84 27.46 26.01 27.48Z" fill="#007AFF" fill-opacity="1.000000" fill-rule="nonzero"/>
</svg>
