<svg width="24.000000" height="24.000000" viewBox="0 0 24 24" fill="none" xmlns="http://www.w3.org/2000/svg" xmlns:xlink="http://www.w3.org/1999/xlink">
	<desc>
			Created with Pixso.
	</desc>
	<defs>
		<clipPath id="clip5_8637">
			<rect id="Broken / Settings, Fine Tuning / Widget 6" rx="4.500000" width="23.000000" height="23.000000" transform="translate(0.500000 0.500000)" fill="white" fill-opacity="0"/>
		</clipPath>
	</defs>
	<g clip-path="url(#clip5_8637)">
		<path id="Rectangle 1884" d="M21.48 19C21.44 19.93 21.31 20.51 20.91 20.91C20.32 21.5 19.38 21.5 17.5 21.5C15.61 21.5 14.67 21.5 14.08 20.91C13.5 20.32 13.5 19.38 13.5 17.5L13.5 15.5C13.5 13.61 13.5 12.67 14.08 12.08C14.67 11.5 15.61 11.5 17.5 11.5C19.38 11.5 20.32 11.5 20.91 12.08C21.44 12.61 21.49 13.44 21.49 15" stroke="#007AFF" stroke-opacity="1.000000" stroke-width="1.500000" stroke-linecap="round"/>
		<path id="Rectangle 1885" d="M10 6.5C10 4.61 10 3.67 9.41 3.08C8.82 2.5 7.88 2.5 6 2.5C4.11 2.5 3.17 2.5 2.58 3.08C2 3.67 2 4.61 2 6.5L2 8.5C2 10.38 2 11.32 2.58 11.91C3.17 12.5 4.11 12.5 6 12.5C7.88 12.5 8.82 12.5 9.41 11.91C10 11.32 10 10.38 10 8.5L10 6.5Z" stroke="#007AFF" stroke-opacity="1.000000" stroke-width="1.500000"/>
		<path id="Rectangle 1881" d="M19.5 2.51C19.82 2.53 20.06 2.56 20.26 2.65C20.75 2.85 21.14 3.24 21.34 3.73C21.5 4.1 21.5 4.56 21.5 5.5C21.5 6.43 21.5 6.89 21.34 7.26C21.14 7.75 20.75 8.14 20.26 8.34C19.89 8.5 19.43 8.5 18.5 8.5L16.5 8.5C15.56 8.5 15.1 8.5 14.73 8.34C14.24 8.14 13.85 7.75 13.65 7.26C13.5 6.89 13.5 6.43 13.5 5.5C13.5 4.56 13.5 4.1 13.65 3.73C13.85 3.24 14.24 2.85 14.73 2.65C14.93 2.56 15.17 2.53 15.5 2.51" stroke="#007AFF" stroke-opacity="1.000000" stroke-width="1.500000" stroke-linecap="round"/>
		<path id="Rectangle 1886" d="M7 21.5C7.93 21.5 8.39 21.5 8.76 21.34C9.25 21.14 9.64 20.75 9.84 20.26C10 19.89 10 19.43 10 18.5C10 17.56 10 17.1 9.84 16.73C9.64 16.24 9.25 15.85 8.76 15.65C8.39 15.5 7.93 15.5 7 15.5L5 15.5C4.06 15.5 3.6 15.5 3.23 15.65C2.74 15.85 2.35 16.24 2.15 16.73C2 17.1 2 17.56 2 18.5C2 19.43 2 19.89 2.15 20.26C2.35 20.75 2.74 21.14 3.23 21.34C3.6 21.5 4.06 21.5 5 21.5L7 21.5Z" stroke="#007AFF" stroke-opacity="1.000000" stroke-width="1.500000"/>
	</g>
</svg>
