<svg width="262.000000" height="142.000000" viewBox="0 0 262 142" fill="none" xmlns="http://www.w3.org/2000/svg" xmlns:xlink="http://www.w3.org/1999/xlink">
	<desc>
			Created with Pixso.
	</desc>
	<defs>
		<clipPath id="clip37_5830">
			<rect rx="0.000000" width="261.000000" height="141.000000" transform="translate(0.500000 0.500000)" fill="white" fill-opacity="0"/>
		</clipPath>
	</defs>
	<rect rx="0.000000" width="261.000000" height="141.000000" transform="translate(0.500000 0.500000)" fill="#FFFFFF" fill-opacity="0"/>
	<g clip-path="url(#clip37_5830)">
		<path d="M101.16 34.04C101.08 34.04 101.01 34.01 100.95 33.95C100.9 33.9 100.86 33.83 100.86 33.75C100.66 31.03 99.44 28.48 97.45 26.62C95.46 24.76 92.85 23.73 90.13 23.72C89.8 23.72 89.46 23.74 89.11 23.77C89.05 23.77 88.99 23.76 88.94 23.74C88.89 23.71 88.85 23.67 88.82 23.62C87.57 21.42 85.7 19.65 83.45 18.51C81.2 17.37 78.67 16.92 76.17 17.22C73.67 17.52 71.31 18.55 69.39 20.19C67.47 21.82 66.07 23.99 65.37 26.41C65.35 26.48 65.31 26.54 65.26 26.58C65.2 26.62 65.14 26.64 65.07 26.64L64.99 26.63C64.95 26.63 64.91 26.63 64.86 26.63C62.8 26.64 60.8 27.35 59.2 28.65C57.6 29.96 56.49 31.77 56.05 33.79C56.04 33.86 56 33.92 55.95 33.97C55.89 34.01 55.82 34.04 55.75 34.04L35.3 34.04C35.22 34.04 35.14 34 35.08 33.95C35.03 33.89 35 33.81 35 33.73C35 33.65 35.03 33.57 35.08 33.51C35.14 33.46 35.22 33.42 35.3 33.42L55.51 33.42C56.02 31.32 57.21 29.45 58.91 28.1C60.6 26.76 62.69 26.03 64.85 26.02C65.62 23.52 67.09 21.31 69.09 19.64C71.09 17.97 73.53 16.92 76.12 16.61C78.7 16.31 81.32 16.76 83.65 17.92C85.98 19.08 87.92 20.89 89.25 23.14C89.55 23.12 89.84 23.11 90.13 23.11C93 23.11 95.76 24.21 97.87 26.18C99.97 28.14 101.26 30.83 101.47 33.71C101.47 33.75 101.46 33.79 101.45 33.83C101.44 33.87 101.42 33.9 101.39 33.93C101.37 33.96 101.33 33.99 101.3 34C101.26 34.02 101.22 34.03 101.18 34.04C101.18 34.04 101.17 34.04 101.16 34.04Z" fill="#CBCBCB" fill-opacity="1.000000" fill-rule="nonzero"/>
		<path d="M97.53 37.96L47.46 37.96C47.38 37.96 47.3 37.93 47.25 37.87C47.19 37.82 47.16 37.74 47.16 37.66C47.16 37.58 47.19 37.5 47.25 37.44C47.3 37.38 47.38 37.35 47.46 37.35L97.53 37.35C97.61 37.35 97.69 37.38 97.75 37.44C97.8 37.5 97.84 37.58 97.84 37.66C97.84 37.74 97.8 37.82 97.75 37.87C97.69 37.93 97.61 37.96 97.53 37.96Z" fill="#CBCBCB" fill-opacity="1.000000" fill-rule="nonzero"/>
		<path d="M59.67 42.41L42.88 42.41C42.84 42.41 42.8 42.4 42.77 42.38C42.73 42.37 42.7 42.35 42.67 42.32C42.64 42.29 42.62 42.25 42.6 42.22C42.58 42.18 42.58 42.14 42.58 42.1C42.58 42.06 42.58 42.02 42.6 41.98C42.62 41.95 42.64 41.91 42.67 41.88C42.7 41.85 42.73 41.83 42.77 41.82C42.8 41.8 42.84 41.79 42.88 41.79L59.67 41.79C59.76 41.79 59.83 41.83 59.89 41.88C59.95 41.94 59.98 42.02 59.98 42.1C59.98 42.18 59.95 42.26 59.89 42.32C59.83 42.37 59.76 42.41 59.67 42.41Z" fill="#CBCBCB" fill-opacity="1.000000" fill-rule="nonzero"/>
		<path d="M75.37 102.01C75.37 114.47 62.36 120.43 62.36 120.43C62.36 120.43 49.21 114.47 48.95 102.01C48.79 94.69 54.86 88.75 62.16 88.75C63.89 88.75 65.61 89.1 67.22 89.76C68.82 90.43 70.28 91.41 71.5 92.64C72.73 93.87 73.7 95.33 74.37 96.94C75.03 98.55 75.37 100.27 75.37 102.01Z" fill="#E5E5E5" fill-opacity="1.000000" fill-rule="nonzero"/>
		<path d="M66.76 121.16L57.96 121.16L56.89 116.88L67.83 116.88L66.76 121.16Z" fill="#CBCBCB" fill-opacity="1.000000" fill-rule="nonzero"/>
		<path d="M58.26 128.49L66.46 128.49L66.46 132.78L58.26 132.78L58.26 128.49Z" fill="#FFFFFF" fill-opacity="1.000000" fill-rule="evenodd"/>
		<path d="M66.53 132.85L58.19 132.85L58.19 128.42L66.53 128.42L66.53 132.85ZM58.32 132.72L66.4 132.72L66.4 128.56L58.32 128.56L58.32 132.72Z" fill="#CBCBCB" fill-opacity="1.000000" fill-rule="nonzero"/>
		<path d="M64.04 121.67L60.68 121.67L60.29 121.06L64.43 121.06L64.04 121.67Z" fill="#CBCBCB" fill-opacity="1.000000" fill-rule="nonzero"/>
		<path d="M58.02 121.16L58.16 121.16L58.16 127.73L58.02 127.73L58.02 121.16Z" fill="#CBCBCB" fill-opacity="1.000000" fill-rule="evenodd"/>
		<path d="M66.56 121.16L66.7 121.16L66.7 127.73L66.56 127.73L66.56 121.16Z" fill="#CBCBCB" fill-opacity="1.000000" fill-rule="evenodd"/>
		<path d="M63.7 116.81L63.62 116.7C67.47 113.72 72.07 108.6 72.07 101.2C72.07 98.6 71.31 96.07 69.88 93.9C68.45 91.74 66.42 90.05 64.04 89.04L64.09 88.92C66.5 89.94 68.55 91.65 69.99 93.83C71.44 96.01 72.2 98.58 72.2 101.2C72.2 108.66 67.58 113.8 63.7 116.81Z" fill="#CBCBCB" fill-opacity="1.000000" fill-rule="nonzero"/>
		<path d="M59.43 116.81L59.34 116.7C63.2 113.72 67.8 108.6 67.8 101.2C67.8 98.62 67.05 96.1 65.64 93.95C64.22 91.79 62.22 90.1 59.86 89.08L59.91 88.96C62.29 89.99 64.32 91.7 65.75 93.87C67.17 96.05 67.93 98.59 67.93 101.2C67.93 108.66 63.31 113.8 59.43 116.81Z" fill="#CBCBCB" fill-opacity="1.000000" fill-rule="nonzero"/>
		<path d="M64.89 116.81C61.01 113.8 56.39 108.66 56.39 101.2C56.39 98.59 57.15 96.05 58.57 93.87C60 91.7 62.03 89.99 64.41 88.96L64.46 89.08C62.1 90.1 60.09 91.79 58.68 93.95C57.27 96.1 56.52 98.62 56.52 101.2C56.52 108.6 61.12 113.72 64.97 116.7L64.89 116.81Z" fill="#CBCBCB" fill-opacity="1.000000" fill-rule="nonzero"/>
		<path d="M60.62 116.81C56.74 113.8 52.12 108.66 52.12 101.2C52.11 98.57 52.89 95.99 54.34 93.8C55.79 91.61 57.86 89.91 60.28 88.9L60.33 89.02C57.94 90.02 55.89 91.71 54.45 93.88C53.01 96.05 52.25 98.59 52.25 101.2C52.25 108.6 56.85 113.72 60.7 116.7L60.62 116.81Z" fill="#CBCBCB" fill-opacity="1.000000" fill-rule="nonzero"/>
		<path d="M62.09 88.75L62.23 88.75L62.23 116.88L62.09 116.88L62.09 88.75Z" fill="#CBCBCB" fill-opacity="1.000000" fill-rule="evenodd"/>
		<path d="" fill="#FFFFFF" fill-opacity="1.000000" fill-rule="nonzero"/>
		<path d="M58.21 129.97L60.66 127.52L60.75 127.61L58.3 130.07L58.21 129.97Z" fill="#CBCBCB" fill-opacity="1.000000" fill-rule="evenodd"/>
		<path d="" fill="#FFFFFF" fill-opacity="1.000000" fill-rule="nonzero"/>
		<path d="M58.21 131.32L61.85 127.48L61.94 127.57L58.3 131.41L58.21 131.32Z" fill="#CBCBCB" fill-opacity="1.000000" fill-rule="evenodd"/>
		<path d="M57.22 127.52L67.23 127.52L67.23 128.73L57.22 128.73L57.22 127.52Z" fill="#FFFFFF" fill-opacity="1.000000" fill-rule="evenodd"/>
		<path d="M67.3 128.8L57.16 128.8L57.16 127.46L67.3 127.46L67.3 128.8ZM57.29 128.66L67.16 128.66L67.16 127.59L57.29 127.59L57.29 128.66Z" fill="#CBCBCB" fill-opacity="1.000000" fill-rule="nonzero"/>
		<path d="M100.56 70.45C100.56 78.67 91.97 82.6 91.97 82.6C91.97 82.6 83.29 78.67 83.11 70.45C83.01 65.62 87.02 61.7 91.84 61.7C94.15 61.7 96.37 62.62 98 64.26C99.64 65.9 100.56 68.13 100.56 70.45Z" fill="#E5E5E5" fill-opacity="1.000000" fill-rule="nonzero"/>
		<path d="M94.87 83.09L89.06 83.09L88.35 80.26L95.58 80.26L94.87 83.09Z" fill="#CBCBCB" fill-opacity="1.000000" fill-rule="nonzero"/>
		<path d="M89.26 87.93L94.67 87.93L94.67 90.76L89.26 90.76L89.26 87.93Z" fill="#FFFFFF" fill-opacity="1.000000" fill-rule="evenodd"/>
		<path d="M94.72 90.8L89.21 90.8L89.21 87.88L94.72 87.88L94.72 90.8ZM89.3 90.72L94.63 90.72L94.63 87.97L89.3 87.97L89.3 90.72Z" fill="#CBCBCB" fill-opacity="1.000000" fill-rule="nonzero"/>
		<path d="M93.08 83.42L90.86 83.42L90.6 83.02L93.33 83.02L93.08 83.42Z" fill="#CBCBCB" fill-opacity="1.000000" fill-rule="nonzero"/>
		<path d="M89.1 83.09L89.19 83.09L89.19 87.42L89.1 87.42L89.1 83.09Z" fill="#CBCBCB" fill-opacity="1.000000" fill-rule="evenodd"/>
		<path d="M94.74 83.09L94.83 83.09L94.83 87.42L94.74 87.42L94.74 83.09Z" fill="#CBCBCB" fill-opacity="1.000000" fill-rule="evenodd"/>
		<path d="M92.85 80.21L92.8 80.14C95.34 78.17 98.37 74.8 98.37 69.91C98.38 68.2 97.87 66.52 96.93 65.1C95.99 63.67 94.65 62.55 93.07 61.89L93.11 61.81C94.7 62.48 96.05 63.61 97.01 65.05C97.96 66.49 98.46 68.18 98.46 69.91C98.46 74.84 95.41 78.23 92.85 80.21Z" fill="#CBCBCB" fill-opacity="1.000000" fill-rule="nonzero"/>
		<path d="M90.03 80.21L89.98 80.14C92.52 78.17 95.56 74.8 95.56 69.91C95.56 68.21 95.06 66.55 94.13 65.13C93.2 63.71 91.87 62.59 90.32 61.91L90.35 61.83C91.92 62.51 93.26 63.64 94.2 65.08C95.14 66.51 95.64 68.19 95.64 69.91C95.64 74.84 92.59 78.23 90.03 80.21Z" fill="#CBCBCB" fill-opacity="1.000000" fill-rule="nonzero"/>
		<path d="M93.64 80.21C91.08 78.23 88.02 74.84 88.02 69.91C88.02 68.19 88.52 66.51 89.47 65.08C90.41 63.64 91.74 62.51 93.32 61.83L93.35 61.91C91.8 62.59 90.47 63.71 89.54 65.13C88.61 66.55 88.11 68.21 88.11 69.91C88.11 74.8 91.15 78.17 93.69 80.14L93.64 80.21Z" fill="#CBCBCB" fill-opacity="1.000000" fill-rule="nonzero"/>
		<path d="M90.82 80.21C88.26 78.23 85.21 74.84 85.21 69.91C85.2 68.17 85.71 66.48 86.67 65.03C87.63 63.59 89 62.46 90.59 61.79L90.63 61.87C89.05 62.53 87.7 63.65 86.75 65.08C85.8 66.51 85.29 68.19 85.29 69.91C85.29 74.8 88.33 78.17 90.87 80.14L90.82 80.21Z" fill="#CBCBCB" fill-opacity="1.000000" fill-rule="nonzero"/>
		<path d="M91.79 61.7L91.88 61.7L91.88 80.26L91.79 80.26L91.79 61.7Z" fill="#CBCBCB" fill-opacity="1.000000" fill-rule="evenodd"/>
		<path d="" fill="#FFFFFF" fill-opacity="1.000000" fill-rule="nonzero"/>
		<path d="M89.23 88.91L90.84 87.28L90.9 87.35L89.29 88.97L89.23 88.91Z" fill="#CBCBCB" fill-opacity="1.000000" fill-rule="evenodd"/>
		<path d="" fill="#FFFFFF" fill-opacity="1.000000" fill-rule="nonzero"/>
		<path d="M89.23 89.79L91.63 87.26L91.69 87.32L89.29 89.85L89.23 89.79Z" fill="#CBCBCB" fill-opacity="1.000000" fill-rule="evenodd"/>
		<path d="M88.58 87.29L95.18 87.29L95.18 88.08L88.58 88.08L88.58 87.29Z" fill="#FFFFFF" fill-opacity="1.000000" fill-rule="evenodd"/>
		<path d="M95.23 88.13L88.53 88.13L88.53 87.24L95.23 87.24L95.23 88.13ZM88.62 88.04L95.14 88.04L95.14 87.33L88.62 87.33L88.62 88.04Z" fill="#CBCBCB" fill-opacity="1.000000" fill-rule="nonzero"/>
		<path d="M173.57 81.69C173.62 81.69 173.68 81.67 173.72 81.63C173.76 81.59 173.78 81.54 173.79 81.48C173.93 79.53 174.8 77.71 176.23 76.38C177.65 75.04 179.53 74.3 181.48 74.29C181.71 74.29 181.96 74.31 182.21 74.33C182.25 74.33 182.29 74.32 182.33 74.3C182.37 74.29 182.4 74.26 182.42 74.22C183.31 72.65 184.65 71.37 186.26 70.56C187.87 69.74 189.69 69.42 191.48 69.64C193.27 69.85 194.96 70.59 196.34 71.76C197.72 72.93 198.72 74.48 199.22 76.22C199.24 76.27 199.26 76.31 199.3 76.34C199.34 76.37 199.39 76.38 199.44 76.38L199.5 76.38C199.53 76.38 199.56 76.38 199.59 76.38C201.07 76.38 202.5 76.9 203.65 77.83C204.8 78.76 205.59 80.06 205.9 81.51C205.91 81.56 205.94 81.61 205.98 81.64C206.02 81.67 206.07 81.69 206.12 81.69L220.78 81.69C220.81 81.69 220.83 81.68 220.86 81.67C220.89 81.66 220.91 81.64 220.93 81.62C220.95 81.6 220.97 81.58 220.98 81.55C220.99 81.53 221 81.5 221 81.47C221 81.44 220.99 81.41 220.98 81.38C220.97 81.36 220.95 81.33 220.93 81.31C220.91 81.29 220.89 81.28 220.86 81.27C220.83 81.25 220.81 81.25 220.78 81.25L206.29 81.25C205.93 79.74 205.07 78.4 203.86 77.44C202.64 76.47 201.14 75.95 199.59 75.94C199.04 74.15 197.99 72.56 196.55 71.37C195.12 70.17 193.37 69.42 191.52 69.2C189.67 68.98 187.79 69.31 186.12 70.14C184.45 70.97 183.06 72.27 182.11 73.88C181.89 73.86 181.68 73.85 181.48 73.85C179.42 73.86 177.44 74.65 175.93 76.05C174.42 77.46 173.5 79.39 173.35 81.45C173.35 81.48 173.35 81.51 173.36 81.54C173.37 81.57 173.38 81.59 173.4 81.61C173.42 81.63 173.44 81.65 173.47 81.66C173.5 81.68 173.52 81.69 173.55 81.69C173.56 81.69 173.56 81.69 173.57 81.69Z" fill="#CBCBCB" fill-opacity="1.000000" fill-rule="nonzero"/>
		<path d="M176.17 84.5L212.06 84.5C212.12 84.5 212.17 84.48 212.21 84.44C212.26 84.4 212.28 84.34 212.28 84.28C212.28 84.23 212.26 84.17 212.21 84.13C212.17 84.09 212.12 84.06 212.06 84.06L176.17 84.06C176.11 84.06 176.06 84.09 176.02 84.13C175.98 84.17 175.95 84.23 175.95 84.28C175.95 84.34 175.98 84.4 176.02 84.44C176.06 84.48 176.11 84.5 176.17 84.5Z" fill="#CBCBCB" fill-opacity="1.000000" fill-rule="nonzero"/>
		<path d="M203.31 87.69L215.34 87.69C215.4 87.69 215.46 87.66 215.5 87.62C215.54 87.58 215.56 87.53 215.56 87.47C215.56 87.41 215.54 87.35 215.5 87.31C215.46 87.27 215.4 87.25 215.34 87.25L203.31 87.25C203.28 87.25 203.25 87.25 203.22 87.27C203.2 87.28 203.17 87.29 203.15 87.31C203.13 87.33 203.11 87.36 203.1 87.38C203.09 87.41 203.09 87.44 203.09 87.47C203.09 87.5 203.09 87.53 203.1 87.55C203.11 87.58 203.13 87.6 203.15 87.62C203.17 87.64 203.2 87.66 203.22 87.67C203.25 87.68 203.28 87.69 203.31 87.69Z" fill="#CBCBCB" fill-opacity="1.000000" fill-rule="nonzero"/>
		<path d="M147.38 140.67L146.66 140.67L146.32 137.88L147.38 137.88L147.38 140.67Z" fill="#9F616A" fill-opacity="1.000000" fill-rule="nonzero"/>
		<path d="M147.56 141.37L145.24 141.37L145.24 141.34C145.24 141.1 145.34 140.87 145.5 140.7C145.67 140.53 145.9 140.44 146.14 140.43L147.56 140.43L147.56 141.37Z" fill="#2F2E41" fill-opacity="1.000000" fill-rule="nonzero"/>
		<path d="M156.67 139.3L156.05 139.67L154.33 137.46L155.24 136.91L156.67 139.3Z" fill="#9F616A" fill-opacity="1.000000" fill-rule="nonzero"/>
		<path d="M155.19 141.01L155.18 140.98C155.06 140.78 155.02 140.53 155.08 140.3C155.14 140.06 155.28 139.86 155.49 139.74L156.7 139L157.18 139.81L155.19 141.01Z" fill="#2F2E41" fill-opacity="1.000000" fill-rule="nonzero"/>
		<path d="M147.57 140.1L147.55 140.1C147.2 140.09 146.85 140.07 146.5 140.03C146.37 140.02 146.23 140.01 146.05 139.99L146.05 139.99C145.93 139.96 145.93 138.84 145.98 135.03C146 133.08 146.03 130.86 146 129.45L146 129.44L146.01 129.43C146.63 128.88 147.38 128.49 148.19 128.28C149 128.07 149.84 128.06 150.65 128.25L150.67 128.25L150.67 128.26C151.38 129.46 152.45 131.2 153.48 132.87C155.86 136.71 156.53 137.84 156.46 137.93L156.45 137.94C156.29 138.02 156.17 138.08 156.07 138.13C155.66 138.35 155.24 138.54 154.81 138.7L154.79 138.71L154.77 138.7C152.36 136.05 150.36 133.09 149.12 130.36C148.98 131.29 148.8 132.51 148.62 133.8C148.08 137.5 147.72 139.94 147.57 140.09L147.57 140.1Z" fill="#2F2E41" fill-opacity="1.000000" fill-rule="nonzero"/>
		<path d="M148.22 129.74C149.65 129.73 151.08 129.97 152.43 130.45C152.48 128.16 151.72 125.94 150.28 124.17L150.27 124.16L150.28 124.14C150.65 123.04 151.04 121.91 151.39 120.78L151.39 120.76C151.14 119.89 150.62 119.01 149.78 118.06C149.69 117.97 149.57 117.91 149.44 117.91C149.31 117.9 149.18 117.94 149.08 118.03C148.34 118.7 147.77 119.53 147.41 120.46C147.04 121.38 146.89 122.38 146.97 123.38L146.97 123.38L146.97 123.39C146.31 125.62 146.07 126.76 145.86 127.77C145.71 128.5 145.58 129.14 145.31 130.05C146.27 129.85 147.24 129.74 148.22 129.74Z" fill="#CBCBCB" fill-opacity="1.000000" fill-rule="nonzero"/>
		<g opacity="0.100000">
			<path d="M150.33 122.7L148.2 127.35L146.98 126.12L150.33 122.7Z" fill="#000000" fill-opacity="1.000000" fill-rule="nonzero"/>
		</g>
		<path d="M150.93 116.09C150.93 116.93 150.25 117.61 149.42 117.61C148.58 117.61 147.9 116.93 147.9 116.09C147.9 115.25 148.58 114.57 149.42 114.57C150.25 114.57 150.93 115.25 150.93 116.09Z" fill="#9F616A" fill-opacity="1.000000" fill-rule="evenodd"/>
		<path d="M147.58 115.23L149.99 115.23L149.99 114.17C149.46 113.96 148.94 113.79 148.63 114.17C148.35 114.17 148.08 114.29 147.89 114.48C147.69 114.68 147.58 114.95 147.58 115.23Z" fill="#2F2E41" fill-opacity="1.000000" fill-rule="nonzero"/>
		<path d="M150.12 113.99C151.56 113.99 151.96 115.8 151.96 116.82C151.96 117.39 151.71 117.59 151.3 117.66L151.16 116.9L150.83 117.7C150.71 117.7 150.59 117.69 150.47 117.69L150.36 117.46L150.11 117.69C149.1 117.69 148.28 117.84 148.28 116.82C148.28 115.8 148.63 113.99 150.12 113.99Z" fill="#2F2E41" fill-opacity="1.000000" fill-rule="nonzero"/>
		<path d="M193.6 43.69C193.6 83.8 151.7 102.99 151.7 102.99C151.7 102.99 109.37 83.8 108.51 43.69C108 20.12 127.56 1 151.05 1C174.55 1 193.6 20.11 193.6 43.69Z" fill="#007AFF" fill-opacity="1.000000" fill-rule="nonzero"/>
		<path d="M152.6 140.36L151.71 140.36L151.29 136.94L152.6 136.94L152.6 140.36Z" fill="#FFB7B7" fill-opacity="1.000000" fill-rule="nonzero"/>
		<path d="M151.08 140.1L152.79 140.1L152.79 141.18L150.01 141.18C150.01 141.04 150.04 140.9 150.09 140.77C150.15 140.64 150.23 140.52 150.33 140.42C150.42 140.32 150.54 140.24 150.67 140.18C150.8 140.13 150.94 140.1 151.08 140.1Z" fill="#2F2E41" fill-opacity="1.000000" fill-rule="nonzero"/>
		<path d="M155.91 140.36L155.03 140.36L154.61 136.94L155.91 136.94L155.91 140.36Z" fill="#FFB7B7" fill-opacity="1.000000" fill-rule="nonzero"/>
		<path d="M154.4 140.1L156.1 140.1L156.1 141.18L153.33 141.18C153.33 140.89 153.44 140.62 153.64 140.42C153.84 140.22 154.11 140.1 154.4 140.1Z" fill="#2F2E41" fill-opacity="1.000000" fill-rule="nonzero"/>
		<path d="M155.8 130.17C155.71 130.11 155.63 130.03 155.57 129.94C155.51 129.84 155.47 129.73 155.45 129.62C155.44 129.5 155.45 129.39 155.49 129.28C155.52 129.17 155.58 129.08 155.66 128.99L155.07 120.71L156.75 120.87L156.79 128.98C156.92 129.12 157 129.31 157.01 129.5C157.01 129.69 156.95 129.87 156.83 130.02C156.7 130.17 156.53 130.26 156.34 130.29C156.16 130.32 155.96 130.28 155.8 130.17Z" fill="#FFB7B7" fill-opacity="1.000000" fill-rule="nonzero"/>
		<path d="M152.56 138.63L151.58 138.59C151.5 138.58 151.42 138.55 151.36 138.49C151.31 138.43 151.27 138.35 151.27 138.26L151.21 128.39C151.21 128.35 151.22 128.3 151.24 128.26C151.25 128.21 151.28 128.17 151.32 128.14C151.35 128.11 151.39 128.09 151.44 128.08C151.48 128.06 151.53 128.06 151.58 128.07L155.47 128.63C155.54 128.64 155.61 128.68 155.67 128.74C155.72 128.8 155.74 128.88 155.74 128.95L156.25 138.1C156.25 138.14 156.24 138.19 156.22 138.23C156.2 138.27 156.18 138.3 156.15 138.33C156.12 138.36 156.09 138.39 156.05 138.4C156 138.42 155.96 138.43 155.92 138.43L154.87 138.43C154.8 138.43 154.72 138.4 154.66 138.35C154.6 138.3 154.56 138.23 154.55 138.15C154.55 138.15 153.76 131.29 153.65 131.3C153.54 131.3 152.89 138.35 152.89 138.35C152.88 138.43 152.85 138.5 152.78 138.55C152.73 138.6 152.65 138.63 152.57 138.63C152.57 138.63 152.56 138.63 152.56 138.63Z" fill="#2F2E41" fill-opacity="1.000000" fill-rule="nonzero"/>
		<path d="M155.45 123.49C155.41 123.47 155.38 123.43 155.36 123.39C155.33 123.34 155.32 123.3 155.32 123.25L155.2 121.02C155.18 120.8 155.25 120.58 155.39 120.4C155.53 120.23 155.73 120.12 155.95 120.08C156.16 120.05 156.39 120.09 156.57 120.21C156.76 120.33 156.89 120.52 156.95 120.73L157.49 122.73C157.51 122.81 157.5 122.9 157.46 122.97C157.41 123.05 157.34 123.1 157.26 123.13L155.73 123.54C155.68 123.56 155.63 123.56 155.58 123.55C155.54 123.54 155.49 123.52 155.45 123.49Z" fill="#3F3D56" fill-opacity="1.000000" fill-rule="nonzero"/>
		<path d="M155.79 116.41C155.79 117.39 155 118.19 154.02 118.19C153.04 118.19 152.25 117.39 152.25 116.41C152.25 115.43 153.04 114.64 154.02 114.64C155 114.64 155.79 115.43 155.79 116.41Z" fill="#FFB7B7" fill-opacity="1.000000" fill-rule="evenodd"/>
		<path d="M155.27 117.82C155.2 117.9 155.1 117.96 155 117.98C154.89 118.01 154.78 118.01 154.68 117.97C154.57 117.94 154.48 117.88 154.41 117.79C154.34 117.71 154.3 117.61 154.29 117.5C154.28 117.46 154.28 117.42 154.29 117.39C154.31 117.17 154.43 116.98 154.4 116.75C154.39 116.7 154.37 116.64 154.34 116.6C154.08 116.25 153.46 116.76 153.21 116.44C153.06 116.24 153.24 115.93 153.12 115.71C152.97 115.42 152.51 115.57 152.23 115.41C151.91 115.23 151.93 114.74 152.14 114.44C152.27 114.27 152.45 114.12 152.64 114.02C152.84 113.92 153.06 113.86 153.28 113.86C153.73 113.85 154.17 113.93 154.58 114.11C155.06 114.27 155.49 114.56 155.8 114.96C155.97 115.22 156.07 115.52 156.11 115.82C156.14 116.13 156.11 116.44 156.01 116.73C155.91 117.09 155.54 117.53 155.27 117.82Z" fill="#2F2E41" fill-opacity="1.000000" fill-rule="nonzero"/>
		<path d="M155.78 119.38C155.75 119.35 155.72 119.33 155.69 119.31C155.52 119.2 155.34 119.11 155.14 119.04L155.14 118.57L153.78 118.57L153.78 119.01C153.32 119.13 152.91 119.39 152.6 119.75C152.3 120.1 152.1 120.54 152.03 121.01L151.1 127.95C151.1 128 151.1 128.04 151.11 128.08C151.12 128.12 151.14 128.16 151.17 128.2C151.2 128.23 151.23 128.26 151.27 128.28C151.3 128.3 151.35 128.31 151.39 128.32C152.04 128.4 152.67 128.62 153.24 128.95C153.65 129.18 154.12 129.3 154.59 129.3C154.96 129.3 155.33 129.23 155.68 129.1C155.74 129.08 155.8 129.04 155.83 128.99C155.87 128.94 155.89 128.88 155.89 128.81C155.93 128.07 156.12 124.22 156.7 121.87C156.81 121.41 156.78 120.93 156.62 120.49C156.46 120.04 156.17 119.66 155.78 119.38Z" fill="#3F3D56" fill-opacity="1.000000" fill-rule="nonzero"/>
		<path d="M165.88 105.36L137.52 105.36L134.08 91.56L169.32 91.56L165.88 105.36Z" fill="#3F3D56" fill-opacity="1.000000" fill-rule="nonzero"/>
		<path d="M138.48 128.96L164.91 128.96L164.91 142.78L138.48 142.78L138.48 128.96Z" fill="#FFFFFF" fill-opacity="1.000000" fill-rule="evenodd"/>
		<path d="M165.13 143L138.27 143L138.27 128.74L165.13 128.74L165.13 143ZM138.7 142.56L164.7 142.56L164.7 129.17L138.7 129.17L138.7 142.56Z" fill="#3F3D56" fill-opacity="1.000000" fill-rule="nonzero"/>
		<path d="M157.12 106.99L146.28 106.99L145.04 105.02L158.36 105.02L157.12 106.99Z" fill="#3F3D56" fill-opacity="1.000000" fill-rule="nonzero"/>
		<path d="M137.73 105.36L138.16 105.36L138.16 126.49L137.73 126.49L137.73 105.36Z" fill="#3F3D56" fill-opacity="1.000000" fill-rule="evenodd"/>
		<path d="M165.24 105.36L165.67 105.36L165.67 126.49L165.24 126.49L165.24 105.36Z" fill="#3F3D56" fill-opacity="1.000000" fill-rule="evenodd"/>
		<path d="M156 91.32L155.74 90.98C168.16 81.37 182.96 64.92 182.96 41.06C182.97 32.71 180.52 24.54 175.92 17.58C171.32 10.61 164.78 5.17 157.1 1.92L157.27 1.53C165.02 4.8 171.63 10.31 176.28 17.34C180.93 24.37 183.4 32.63 183.39 41.06C183.39 65.09 168.5 81.66 156 91.32Z" fill="#3F3D56" fill-opacity="1.000000" fill-rule="nonzero"/>
		<path d="M142.25 91.32L141.99 90.98C154.41 81.37 169.21 64.92 169.21 41.06C169.21 32.77 166.79 24.65 162.25 17.72C157.71 10.78 151.24 5.34 143.65 2.05L143.82 1.65C151.49 4.97 158.02 10.48 162.61 17.48C167.2 24.48 169.64 32.68 169.64 41.06C169.64 65.09 154.75 81.66 142.25 91.32Z" fill="#3F3D56" fill-opacity="1.000000" fill-rule="nonzero"/>
		<path d="M159.85 91.32C147.36 81.66 132.47 65.09 132.47 41.06C132.47 32.68 134.91 24.48 139.5 17.48C144.09 10.48 150.62 4.97 158.29 1.65L158.46 2.05C150.87 5.34 144.4 10.78 139.86 17.72C135.32 24.65 132.9 32.77 132.9 41.06C132.9 64.92 147.7 81.37 160.12 90.98L159.85 91.32Z" fill="#3F3D56" fill-opacity="1.000000" fill-rule="nonzero"/>
		<path d="M146.1 91.32C133.61 81.66 118.72 65.09 118.72 41.06C118.7 32.59 121.19 24.31 125.87 17.26C130.55 10.21 137.21 4.71 145.01 1.45L145.17 1.85C137.46 5.07 130.87 10.52 126.23 17.5C121.6 24.48 119.13 32.68 119.15 41.06C119.15 64.92 133.95 81.37 146.36 90.98L146.1 91.32Z" fill="#3F3D56" fill-opacity="1.000000" fill-rule="nonzero"/>
		<path d="M150.84 1L151.27 1L151.27 91.56L150.84 91.56L150.84 1Z" fill="#3F3D56" fill-opacity="1.000000" fill-rule="evenodd"/>
		<path d="" fill="#FFFFFF" fill-opacity="1.000000" fill-rule="nonzero"/>
		<path d="M138.33 133.73L146.21 125.83L146.52 126.13L138.64 134.04L138.33 133.73Z" fill="#3F3D56" fill-opacity="1.000000" fill-rule="evenodd"/>
		<path d="" fill="#FFFFFF" fill-opacity="1.000000" fill-rule="nonzero"/>
		<path d="M138.33 138.06L150.04 125.69L150.35 125.99L138.64 138.35L138.33 138.06Z" fill="#3F3D56" fill-opacity="1.000000" fill-rule="evenodd"/>
		<path d="M135.15 125.84L167.38 125.84L167.38 129.72L135.15 129.72L135.15 125.84Z" fill="#FFFFFF" fill-opacity="1.000000" fill-rule="evenodd"/>
		<path d="M167.6 129.94L134.94 129.94L134.94 125.63L167.6 125.63L167.6 129.94ZM135.37 129.51L167.17 129.51L167.17 126.06L135.37 126.06L135.37 129.51Z" fill="#3F3D56" fill-opacity="1.000000" fill-rule="nonzero"/>
		<path d="M145.58 127.65C145.66 127.64 145.75 127.62 145.82 127.57C145.9 127.53 145.96 127.47 146.02 127.4C146.07 127.33 146.1 127.25 146.12 127.17C146.13 127.08 146.13 127 146.11 126.91L147.87 125.76L146.86 125.32L145.35 126.49C145.21 126.53 145.09 126.63 145.02 126.75C144.95 126.88 144.92 127.03 144.95 127.17C144.98 127.31 145.06 127.44 145.17 127.53C145.29 127.62 145.43 127.66 145.58 127.65Z" fill="#9F616A" fill-opacity="1.000000" fill-rule="nonzero"/>
		<path d="M147.27 126.82L147.25 126.8C146.83 126.49 146.36 126.17 145.91 125.86L145.89 125.85L145.91 125.82C146.87 124.7 147.83 123.52 148.75 122.39L148.75 122.38L148.76 122.38L148.76 122.37L148.77 122.37L148.77 122.37L148.75 122.37L148.46 120.12C148.32 119.89 148.25 119.62 148.25 119.35C148.26 119.07 148.34 118.81 148.49 118.58C148.66 118.33 148.92 118.16 149.22 118.09C149.51 118.02 149.82 118.07 150.08 118.21C150.21 118.3 150.32 118.42 150.39 118.55C150.47 118.69 150.52 118.84 150.53 119C150.55 119.13 150.54 119.28 150.5 119.41C150.45 119.54 150.38 119.66 150.29 119.77C150.39 120.86 150.43 121.95 150.42 123.05L150.42 123.06L150.41 123.07C149.42 124.33 148.34 125.58 147.28 126.8L147.27 126.82Z" fill="#CBCBCB" fill-opacity="1.000000" fill-rule="nonzero"/>
		<path d="M147.61 119.9C147.62 119.94 147.62 119.98 147.62 120.02L150.72 121.81L151.47 121.38L152.27 122.43L150.66 123.58L147.13 120.79C146.99 120.84 146.83 120.85 146.68 120.81C146.53 120.77 146.4 120.69 146.3 120.57C146.2 120.46 146.14 120.31 146.12 120.16C146.1 120.01 146.13 119.85 146.2 119.72C146.28 119.58 146.39 119.47 146.53 119.4C146.66 119.33 146.82 119.3 146.97 119.32C147.12 119.34 147.26 119.41 147.38 119.51C147.49 119.62 147.57 119.75 147.61 119.9Z" fill="#FFB7B7" fill-opacity="1.000000" fill-rule="nonzero"/>
		<path d="M150.83 121.66C150.82 121.61 150.83 121.56 150.85 121.52C150.86 121.47 150.89 121.43 150.92 121.4L152.5 119.81C152.65 119.66 152.86 119.56 153.08 119.55C153.3 119.54 153.52 119.61 153.69 119.75C153.86 119.89 153.98 120.09 154.01 120.31C154.05 120.53 154 120.75 153.88 120.94L152.76 122.67C152.71 122.74 152.64 122.79 152.55 122.81C152.47 122.83 152.38 122.81 152.31 122.77L150.98 121.9C150.93 121.87 150.9 121.84 150.88 121.8C150.85 121.75 150.83 121.71 150.83 121.66Z" fill="#3F3D56" fill-opacity="1.000000" fill-rule="nonzero"/>
		<path d="M129.4 106.27C129.34 106.27 129.29 106.25 129.25 106.21C129.21 106.17 129.18 106.12 129.18 106.07C129.04 104.11 128.17 102.29 126.74 100.96C125.31 99.62 123.44 98.88 121.49 98.87C121.26 98.87 121.01 98.89 120.76 98.91C120.72 98.91 120.68 98.91 120.64 98.89C120.6 98.87 120.57 98.84 120.55 98.8C119.65 97.23 118.32 95.95 116.7 95.14C115.09 94.32 113.28 94 111.49 94.22C109.69 94.43 108 95.17 106.63 96.34C105.25 97.51 104.25 99.07 103.74 100.81C103.73 100.85 103.7 100.89 103.66 100.92C103.62 100.95 103.58 100.97 103.53 100.96L103.47 100.96C103.44 100.96 103.41 100.96 103.38 100.96C101.9 100.97 100.47 101.48 99.32 102.41C98.17 103.35 97.37 104.64 97.06 106.1C97.05 106.14 97.03 106.19 96.99 106.22C96.95 106.25 96.9 106.27 96.85 106.27L82.19 106.27C82.16 106.27 82.13 106.26 82.11 106.25C82.08 106.24 82.05 106.23 82.03 106.21C82.01 106.19 82 106.16 81.99 106.13C81.98 106.11 81.97 106.08 81.97 106.05C81.97 106.02 81.98 105.99 81.99 105.97C82 105.94 82.01 105.91 82.03 105.89C82.05 105.87 82.08 105.86 82.11 105.85C82.13 105.84 82.16 105.83 82.19 105.83L96.67 105.83C97.04 104.32 97.9 102.98 99.11 102.02C100.33 101.05 101.83 100.53 103.37 100.52C103.92 98.73 104.98 97.14 106.41 95.95C107.85 94.75 109.6 94 111.45 93.78C113.3 93.56 115.17 93.89 116.85 94.72C118.52 95.55 119.91 96.85 120.86 98.46C121.07 98.44 121.29 98.43 121.49 98.43C123.55 98.44 125.53 99.23 127.04 100.64C128.54 102.04 129.47 103.97 129.62 106.03C129.62 106.06 129.62 106.09 129.61 106.12C129.6 106.15 129.58 106.17 129.56 106.19C129.55 106.22 129.52 106.23 129.5 106.25C129.47 106.26 129.44 106.27 129.41 106.27C129.41 106.27 129.4 106.27 129.4 106.27Z" fill="#CBCBCB" fill-opacity="1.000000" fill-rule="nonzero"/>
		<path d="M126.8 109.08L90.91 109.08C90.88 109.09 90.85 109.08 90.82 109.07C90.8 109.06 90.77 109.04 90.75 109.02C90.73 109 90.72 108.98 90.71 108.95C90.69 108.92 90.69 108.89 90.69 108.87C90.69 108.84 90.69 108.81 90.71 108.78C90.72 108.75 90.73 108.73 90.75 108.71C90.77 108.69 90.8 108.67 90.82 108.66C90.85 108.65 90.88 108.65 90.91 108.65L126.8 108.65C126.85 108.65 126.91 108.67 126.95 108.71C126.99 108.75 127.02 108.81 127.02 108.87C127.02 108.92 126.99 108.98 126.95 109.02C126.91 109.06 126.85 109.08 126.8 109.08Z" fill="#CBCBCB" fill-opacity="1.000000" fill-rule="nonzero"/>
		<path d="M99.66 112.27L87.62 112.27C87.6 112.27 87.57 112.26 87.54 112.25C87.51 112.24 87.49 112.23 87.47 112.21C87.45 112.18 87.43 112.16 87.42 112.13C87.41 112.11 87.41 112.08 87.41 112.05C87.41 112.02 87.41 111.99 87.42 111.97C87.43 111.94 87.45 111.91 87.47 111.89C87.49 111.87 87.51 111.86 87.54 111.85C87.57 111.84 87.6 111.83 87.62 111.83L99.66 111.83C99.69 111.83 99.72 111.84 99.74 111.85C99.77 111.86 99.8 111.87 99.82 111.89C99.84 111.91 99.85 111.94 99.86 111.97C99.87 111.99 99.88 112.02 99.88 112.05C99.88 112.08 99.87 112.11 99.86 112.13C99.85 112.16 99.84 112.18 99.82 112.21C99.8 112.23 99.77 112.24 99.74 112.25C99.72 112.26 99.69 112.27 99.66 112.27Z" fill="#CBCBCB" fill-opacity="1.000000" fill-rule="nonzero"/>
	</g>
</svg>
