<svg width="24.000000" height="24.000000" viewBox="0 0 24 24" fill="none" xmlns="http://www.w3.org/2000/svg" xmlns:xlink="http://www.w3.org/1999/xlink">
	<desc>
			Created with Pixso.
	</desc>
	<defs>
		<clipPath id="clip5_3850">
			<rect rx="4.500000" width="23.000000" height="23.000000" transform="translate(0.500000 0.500000)" fill="white" fill-opacity="0"/>
		</clipPath>
	</defs>
	<rect rx="4.500000" width="23.000000" height="23.000000" transform="translate(0.500000 0.500000)" fill="#FFFFFF" fill-opacity="1.000000"/>
	<g clip-path="url(#clip5_3850)">
		<path d="M9.1 2.67C9.98 2.24 10.96 2 12 2C15.72 2 18.74 5.13 18.74 9L18.74 9.7C18.74 10.55 18.99 11.38 19.44 12.08L20.54 13.8C21.56 15.38 20.78 17.52 19.02 18.02C14.42 19.32 9.57 19.32 4.97 18.02C3.21 17.52 2.43 15.38 3.45 13.8L4.55 12.08C5 11.38 5.25 10.55 5.25 9.7L5.25 9C5.25 7.93 5.48 6.91 5.9 6" stroke="#AEAEB2" stroke-opacity="1.000000" stroke-width="1.500000" stroke-linecap="round"/>
		<path d="M6.79 19.26Q7.08 20.02 7.6 20.67Q8.11 21.31 8.79 21.77Q9.48 22.24 10.29 22.49Q11.12 22.75 12 22.75Q12.41 22.75 12.82 22.69L12.61 21.2Q12.3 21.25 12 21.25Q11.34 21.25 10.73 21.06Q10.14 20.87 9.63 20.53Q9.14 20.19 8.77 19.73Q8.4 19.27 8.2 18.73L6.79 19.26ZM15.68 21.41Q16.19 20.97 16.57 20.43Q16.96 19.88 17.2 19.26L15.79 18.73Q15.46 19.62 14.71 20.26L15.68 21.41ZM8.19 18.76L8.2 18.73C8.05 18.34 7.63 18.15 7.23 18.29C6.84 18.44 6.65 18.87 6.79 19.26L6.82 19.27L8.19 18.76ZM17.17 19.27L17.2 19.26C17.34 18.87 17.15 18.44 16.76 18.29C16.36 18.15 15.94 18.34 15.79 18.73L15.8 18.76L17.17 19.27ZM12.8 22.67L12.82 22.69C13.24 22.63 13.52 22.25 13.46 21.84C13.4 21.42 13.02 21.14 12.61 21.2L12.59 21.22L12.8 22.67ZM14.74 20.27L14.71 20.26C14.39 20.54 14.35 21 14.62 21.32C14.9 21.64 15.36 21.68 15.68 21.41L15.68 21.38L14.74 20.27Z" fill="#AEAEB2" fill-opacity="1.000000" fill-rule="evenodd"/>
	</g>
</svg>
