<svg width="24.000000" height="24.000000" viewBox="0 0 24 24" fill="none" xmlns="http://www.w3.org/2000/svg" xmlns:xlink="http://www.w3.org/1999/xlink">
	<desc>
			Created with Pixso.
	</desc>
	<defs>
		<clipPath id="clip5_3857">
			<rect rx="0.000000" width="23.000000" height="23.000000" transform="translate(0.500000 0.500000)" fill="white" fill-opacity="0"/>
		</clipPath>
	</defs>
	<g clip-path="url(#clip5_3857)">
		<path d="M9 19.5C9 20.32 8.32 21 7.5 21C6.67 21 6 20.32 6 19.5C6 18.67 6.67 18 7.5 18C8.32 18 9 18.67 9 19.5Z" stroke="#AEAEB2" stroke-opacity="1.000000" stroke-width="1.500000"/>
		<path d="M18 19.5C18 20.32 17.32 21 16.5 21C15.67 21 15 20.32 15 19.5C15 18.67 15.67 18 16.5 18C17.32 18 18 18.67 18 19.5Z" stroke="#AEAEB2" stroke-opacity="1.000000" stroke-width="1.500000"/>
		<path d="M12 15.5L10.93 15.5C8.14 15.5 6.75 15.5 5.88 14.58C5.02 13.67 4.95 12.7 4.95 9.75L4.95 7.03C4.95 5.59 4.95 4.86 4.58 4.32C4.21 3.77 3.56 3.54 2.26 3.09L2 3M11.02 6.12L17.08 6.12C18.77 6.12 20.29 6.12 20.73 6.69C21.17 7.27 21 8.14 20.65 9.88L20.15 12.3C19.84 13.83 19.68 14.6 19.13 15.05C18.58 15.5 17.8 15.5 16.24 15.5M4.95 6.12L7 6.12" stroke="#AEAEB2" stroke-opacity="1.000000" stroke-width="1.500000" stroke-linecap="round"/>
	</g>
</svg>
