<svg width="45.000000" height="27.611816" viewBox="0 0 45 27.6118" fill="none" xmlns="http://www.w3.org/2000/svg" xmlns:xlink="http://www.w3.org/1999/xlink">
	<desc>
			Created with Pixso.
	</desc>
	<defs/>
	<mask id="mask_37_5720" fill="white">
		<path id="Left" d="M13.6475 0C6.11035 0 0 6.18115 0 13.8062C0 21.4307 6.11035 27.6118 13.6475 27.6118C17.0254 27.6118 20.1167 26.3706 22.5 24.314C24.8833 26.3706 27.9746 27.6118 31.3525 27.6118C38.8896 27.6118 45 21.4307 45 13.8062C45 6.18115 38.8896 0 31.3525 0C27.9746 0 24.8833 1.2417 22.5 3.29785C20.1167 1.2417 17.0254 0 13.6475 0Z" clip-rule="evenodd" fill="" fill-opacity="1.000000" fill-rule="evenodd"/>
	</mask>
	<path id="Left" d="M13.6475 0C6.11035 0 0 6.18115 0 13.8062C0 21.4307 6.11035 27.6118 13.6475 27.6118C17.0254 27.6118 20.1167 26.3706 22.5 24.314C24.8833 26.3706 27.9746 27.6118 31.3525 27.6118C38.8896 27.6118 45 21.4307 45 13.8062C45 6.18115 38.8896 0 31.3525 0C27.9746 0 24.8833 1.2417 22.5 3.29785C20.1167 1.2417 17.0254 0 13.6475 0Z" clip-rule="evenodd" fill="#ED0006" fill-opacity="1.000000" fill-rule="evenodd" mask="url(#mask_37_5720)"/>
	<path id="Left" d="" fill="#979797" fill-opacity="0.000000" fill-rule="nonzero"/>
	<mask id="mask_37_5723" fill="white">
		<path id="Right" d="M22.5 24.314C24.8833 26.3706 27.9746 27.6118 31.3525 27.6118C38.8896 27.6118 45 21.4307 45 13.8062C45 6.18115 38.8896 0 31.3525 0C27.9746 0 24.8833 1.2417 22.5 3.29785C25.4346 5.83057 27.2949 9.59814 27.2949 13.8062C27.2949 18.0137 25.4346 21.7817 22.5 24.314Z" clip-rule="evenodd" fill="" fill-opacity="1.000000" fill-rule="evenodd"/>
	</mask>
	<path id="Right" d="M22.5 24.314C24.8833 26.3706 27.9746 27.6118 31.3525 27.6118C38.8896 27.6118 45 21.4307 45 13.8062C45 6.18115 38.8896 0 31.3525 0C27.9746 0 24.8833 1.2417 22.5 3.29785C25.4346 5.83057 27.2949 9.59814 27.2949 13.8062C27.2949 18.0137 25.4346 21.7817 22.5 24.314Z" clip-rule="evenodd" fill="#F9A000" fill-opacity="1.000000" fill-rule="evenodd" mask="url(#mask_37_5723)"/>
	<path id="Right" d="" fill="#979797" fill-opacity="0.000000" fill-rule="nonzero"/>
	<path id="Middle" d="M22.5 3.29834C19.5659 5.83057 17.7051 9.59863 17.7051 13.8062C17.7051 18.0137 19.5659 21.7817 22.5 24.314C25.4346 21.7817 27.2949 18.0137 27.2949 13.8062C27.2949 9.59863 25.4346 5.83057 22.5 3.29834Z" clip-rule="evenodd" fill="#FF5E00" fill-opacity="1.000000" fill-rule="evenodd"/>
</svg>
