<svg width="24.000000" height="24.000000" viewBox="0 0 24 24" fill="none" xmlns="http://www.w3.org/2000/svg" xmlns:xlink="http://www.w3.org/1999/xlink">
	<desc>
			Created with Pixso.
	</desc>
	<defs>
		<clipPath id="clip107_4660">
			<rect id="Broken" rx="0.000000" width="23.000000" height="23.000000" transform="translate(0.500000 0.500000)" fill="white" fill-opacity="0"/>
		</clipPath>
	</defs>
	<g clip-path="url(#clip107_4660)">
		<path id="Vector" d="M22 10.5L22 12C22 16.71 22 19.07 20.53 20.53C19.07 22 16.71 22 12 22C7.28 22 4.92 22 3.46 20.53C2 19.07 2 16.71 2 12M13.5 2L12 2C7.28 2 4.92 2 3.46 3.46C2.49 4.43 2.16 5.8 2.05 8" stroke="#AEAEB2" stroke-opacity="1.000000" stroke-width="1.500000" stroke-linecap="round"/>
		<path id="Vector" d="M14.58 13.31C14.17 13.71 13.97 13.91 13.75 14.09C13.48 14.29 13.2 14.47 12.9 14.61C12.64 14.73 12.37 14.82 11.83 15L10.1 15.58L8.97 15.96C8.71 16.05 8.41 15.98 8.21 15.78C8.01 15.58 7.94 15.28 8.03 15.02L8.41 13.89L8.99 12.16C9.17 11.62 9.26 11.35 9.38 11.09C9.52 10.79 9.7 10.51 9.9 10.24C10.08 10.02 10.28 9.82 10.68 9.41L16.65 3.45L17.3 2.8C18.37 1.73 20.11 1.73 21.19 2.8C22.26 3.88 22.26 5.62 21.19 6.69L20.54 7.34L17.56 10.33M16.65 3.45C16.65 3.45 16.73 4.83 17.94 6.05C19.16 7.26 20.54 7.34 20.54 7.34M10.1 15.58L8.41 13.89" stroke="#AEAEB2" stroke-opacity="1.000000" stroke-width="1.500000" stroke-linecap="round"/>
	</g>
</svg>
