<svg width="24.000000" height="24.000000" viewBox="0 0 24 24" fill="none" xmlns="http://www.w3.org/2000/svg" xmlns:xlink="http://www.w3.org/1999/xlink">
	<desc>
			Created with Pixso.
	</desc>
	<defs>
		<clipPath id="clip37_5702">
			<rect id="Broken / Electronic, Devices / iPhone" rx="0.000000" width="23.000000" height="23.000000" transform="translate(0.500000 0.500000)" fill="white" fill-opacity="0"/>
		</clipPath>
	</defs>
	<g clip-path="url(#clip37_5702)">
		<path id="Vector" d="M20 14C20 17.77 20 19.65 18.82 20.82C17.65 22 15.77 22 12 22C8.22 22 6.34 22 5.17 20.82C4 19.65 4 17.77 4 14L4 10C4 6.22 4 4.34 5.17 3.17C6.34 2 8.22 2 12 2C15.77 2 17.65 2 18.82 3.17C20 4.34 20 6.22 20 10" stroke="#C7C7CC" stroke-opacity="1.000000" stroke-width="1.500000" stroke-linecap="round"/>
		<path id="Vector" d="M15 19L9 19" stroke="#C7C7CC" stroke-opacity="1.000000" stroke-width="1.500000" stroke-linecap="round"/>
		<path id="Vector" d="M7.25 2.37L7.33 2.5C8.09 3.63 8.47 4.2 9.02 4.54C9.13 4.61 9.24 4.67 9.36 4.73C9.95 5 10.63 5 12 5C13.36 5 14.04 5 14.63 4.73C14.75 4.67 14.86 4.61 14.97 4.54C15.53 4.2 15.9 3.63 16.66 2.5L16.74 2.37" stroke="#C7C7CC" stroke-opacity="1.000000" stroke-width="1.500000" stroke-linecap="round"/>
	</g>
</svg>
