<svg width="24.000000" height="24.000000" viewBox="0 0 24 24" fill="none" xmlns="http://www.w3.org/2000/svg" xmlns:xlink="http://www.w3.org/1999/xlink">
	<desc>
			Created with Pixso.
	</desc>
	<defs>
		<clipPath id="clip37_5699">
			<rect id="Broken / Messages, Conversation  /  Letter" rx="0.000000" width="23.000000" height="23.000000" transform="translate(0.500000 0.500000)" fill="white" fill-opacity="0"/>
		</clipPath>
	</defs>
	<g clip-path="url(#clip37_5699)">
		<path id="Vector" d="M22 12C22 15.77 22 17.65 20.82 18.82C19.65 20 17.77 20 14 20L10 20C6.22 20 4.34 20 3.17 18.82C2 17.65 2 15.77 2 12C2 8.22 2 6.34 3.17 5.17C4.34 4 6.22 4 10 4L14 4C17.77 4 19.65 4 20.82 5.17C21.48 5.82 21.77 6.69 21.89 8" stroke="#C7C7CC" stroke-opacity="1.000000" stroke-width="1.500000" stroke-linecap="round"/>
		<path id="Vector" d="M18 8L15.84 9.79C14 11.32 13.08 12.09 12 12.09C11.35 12.09 10.76 11.82 10 11.27M7.79 9.5L6.89 8.75L6 8" stroke="#C7C7CC" stroke-opacity="1.000000" stroke-width="1.500000" stroke-linecap="round"/>
	</g>
</svg>
